<?xml version="1.0" encoding="UTF-8" standalone="no"?><svg xmlns="http://www.w3.org/2000/svg" xmlns:xlink="http://www.w3.org/1999/xlink" clip-rule="evenodd" stroke-miterlimit="4.00" viewBox="0 0 1920 1080"><desc>SVG generated by Keynote</desc><defs></defs><g transform="matrix(1.00, 0.00, -0.00, -1.00, 0.0, 1080.0)"><path d="M 0.0 1080.0 L 1920.0 1080.0 L 1920.0 0.0 L 0.0 0.0 Z M 0.0 1080.0 " fill="#000000"></path><image xlink:href="../../D3095388-3381-46A4-9297-FDEA88B38953/assets/25C40DCE4BD66AA0B12CE9524B56F8CF.png" width="882.00" height="102.00" transform="matrix(1.00, 0.00, -0.00, -1.00, 119.0, 1020.0)"></image><text xml:space="preserve" font-family="HelveticaNeue-Light" font-size="100.0" fill="#FEFFFE" transform="matrix(1.00, 0.00, -0.00, -1.00, 120.0, 946.0)">O</text><text xml:space="preserve" font-family="HelveticaNeue-Light" font-size="100.0" fill="#FEFFFE" transform="matrix(1.00, 0.00, -0.00, -1.00, 194.1, 946.0)">r</text><text xml:space="preserve" font-family="HelveticaNeue-Light" font-size="100.0" fill="#FEFFFE" transform="matrix(1.00, 0.00, -0.00, -1.00, 225.6, 946.0)">i</text><text xml:space="preserve" font-family="HelveticaNeue-Light" font-size="100.0" fill="#FEFFFE" transform="matrix(1.00, 0.00, -0.00, -1.00, 244.1, 946.0)">g</text><text xml:space="preserve" font-family="HelveticaNeue-Light" font-size="100.0" fill="#FEFFFE" transform="matrix(1.00, 0.00, -0.00, -1.00, 299.7, 946.0)">i</text><text xml:space="preserve" font-family="HelveticaNeue-Light" font-size="100.0" fill="#FEFFFE" transform="matrix(1.00, 0.00, -0.00, -1.00, 318.2, 946.0)">n</text><text xml:space="preserve" font-family="HelveticaNeue-Light" font-size="100.0" fill="#FEFFFE" transform="matrix(1.00, 0.00, -0.00, -1.00, 371.9, 946.0)">a</text><text xml:space="preserve" font-family="HelveticaNeue-Light" font-size="100.0" fill="#FEFFFE" transform="matrix(1.00, 0.00, -0.00, -1.00, 423.8, 946.0)">t</text><text xml:space="preserve" font-family="HelveticaNeue-Light" font-size="100.0" fill="#FEFFFE" transform="matrix(1.00, 0.00, -0.00, -1.00, 453.4, 946.0)">i</text><text xml:space="preserve" font-family="HelveticaNeue-Light" font-size="100.0" fill="#FEFFFE" transform="matrix(1.00, 0.00, -0.00, -1.00, 471.9, 946.0)">o</text><text xml:space="preserve" font-family="HelveticaNeue-Light" font-size="100.0" fill="#FEFFFE" transform="matrix(1.00, 0.00, -0.00, -1.00, 527.5, 946.0)">n</text><text xml:space="preserve" font-family="HelveticaNeue-Light" font-size="100.0" fill="#FEFFFE" transform="matrix(1.00, 0.00, -0.00, -1.00, 581.2, 946.0)"> </text><text xml:space="preserve" font-family="HelveticaNeue-Light" font-size="100.0" fill="#FEFFFE" transform="matrix(1.00, 0.00, -0.00, -1.00, 609.0, 946.0)">M</text><text xml:space="preserve" font-family="HelveticaNeue-Light" font-size="100.0" fill="#FEFFFE" transform="matrix(1.00, 0.00, -0.00, -1.00, 691.1, 946.0)">e</text><text xml:space="preserve" font-family="HelveticaNeue-Light" font-size="100.0" fill="#FEFFFE" transform="matrix(1.00, 0.00, -0.00, -1.00, 743.0, 946.0)">s</text><text xml:space="preserve" font-family="HelveticaNeue-Light" font-size="100.0" fill="#FEFFFE" transform="matrix(1.00, 0.00, -0.00, -1.00, 791.1, 946.0)">s</text><text xml:space="preserve" font-family="HelveticaNeue-Light" font-size="100.0" fill="#FEFFFE" transform="matrix(1.00, 0.00, -0.00, -1.00, 839.2, 946.0)">a</text><text xml:space="preserve" font-family="HelveticaNeue-Light" font-size="100.0" fill="#FEFFFE" transform="matrix(1.00, 0.00, -0.00, -1.00, 891.1, 946.0)">g</text><text xml:space="preserve" font-family="HelveticaNeue-Light" font-size="100.0" fill="#FEFFFE" transform="matrix(1.00, 0.00, -0.00, -1.00, 946.7, 946.0)">e</text><image xlink:href="CCA3CA02F976BC2DCEB571690ECDB8DB.png" width="1580.00" height="56.00" transform="matrix(1.00, 0.00, -0.00, -1.00, 116.0, 834.0)"></image><text xml:space="preserve" font-family="HelveticaNeue-Light" font-size="50.0" fill="#FEFFFE" transform="matrix(1.00, 0.00, -0.00, -1.00, 120.0, 796.0)">W</text><text xml:space="preserve" font-family="HelveticaNeue-Light" font-size="50.0" fill="#FEFFFE" transform="matrix(1.00, 0.00, -0.00, -1.00, 164.4, 796.0)">o</text><text xml:space="preserve" font-family="HelveticaNeue-Light" font-size="50.0" fill="#FEFFFE" transform="matrix(1.00, 0.00, -0.00, -1.00, 192.2, 796.0)">r</text><text xml:space="preserve" font-family="HelveticaNeue-Light" font-size="50.0" fill="#FEFFFE" transform="matrix(1.00, 0.00, -0.00, -1.00, 207.1, 796.0)">d</text><text xml:space="preserve" font-family="HelveticaNeue-Light" font-size="50.0" fill="#FEFFFE" transform="matrix(1.00, 0.00, -0.00, -1.00, 235.8, 796.0)"> </text><text xml:space="preserve" font-family="HelveticaNeue-Light" font-size="50.0" fill="#FEFFFE" transform="matrix(1.00, 0.00, -0.00, -1.00, 249.7, 796.0)">C</text><text xml:space="preserve" font-family="HelveticaNeue-Light" font-size="50.0" fill="#FEFFFE" transform="matrix(1.00, 0.00, -0.00, -1.00, 284.9, 796.0)"> </text><text xml:space="preserve" font-family="HelveticaNeue-Light" font-size="50.0" fill="#FEFFFE" transform="matrix(1.00, 0.00, -0.00, -1.00, 298.8, 796.0)">(</text><text xml:space="preserve" font-family="HelveticaNeue-Light" font-size="50.0" fill="#FEFFFE" transform="matrix(1.00, 0.00, -0.00, -1.00, 310.9, 796.0)">s</text><text xml:space="preserve" font-family="HelveticaNeue-Light" font-size="50.0" fill="#FEFFFE" transform="matrix(1.00, 0.00, -0.00, -1.00, 334.9, 796.0)">e</text><text xml:space="preserve" font-family="HelveticaNeue-Light" font-size="50.0" fill="#FEFFFE" transform="matrix(1.00, 0.00, -0.00, -1.00, 360.9, 796.0)">n</text><text xml:space="preserve" font-family="HelveticaNeue-Light" font-size="50.0" fill="#FEFFFE" transform="matrix(1.00, 0.00, -0.00, -1.00, 387.7, 796.0)">t</text><text xml:space="preserve" font-family="HelveticaNeue-Light" font-size="50.0" fill="#FEFFFE" transform="matrix(1.00, 0.00, -0.00, -1.00, 402.5, 796.0)"> </text><text xml:space="preserve" font-family="HelveticaNeue-Light" font-size="50.0" fill="#FEFFFE" transform="matrix(1.00, 0.00, -0.00, -1.00, 416.4, 796.0)">u</text><text xml:space="preserve" font-family="HelveticaNeue-Light" font-size="50.0" fill="#FEFFFE" transform="matrix(1.00, 0.00, -0.00, -1.00, 443.3, 796.0)">n</text><text xml:space="preserve" font-family="HelveticaNeue-Light" font-size="50.0" fill="#FEFFFE" transform="matrix(1.00, 0.00, -0.00, -1.00, 470.1, 796.0)">l</text><text xml:space="preserve" font-family="HelveticaNeue-Light" font-size="50.0" fill="#FEFFFE" transform="matrix(1.00, 0.00, -0.00, -1.00, 479.4, 796.0)">e</text><text xml:space="preserve" font-family="HelveticaNeue-Light" font-size="50.0" fill="#FEFFFE" transform="matrix(1.00, 0.00, -0.00, -1.00, 505.3, 796.0)">s</text><text xml:space="preserve" font-family="HelveticaNeue-Light" font-size="50.0" fill="#FEFFFE" transform="matrix(1.00, 0.00, -0.00, -1.00, 529.4, 796.0)">s</text><text xml:space="preserve" font-family="HelveticaNeue-Light" font-size="50.0" fill="#FEFFFE" transform="matrix(1.00, 0.00, -0.00, -1.00, 553.4, 796.0)"> </text><text xml:space="preserve" font-family="HelveticaNeue-Light" font-size="50.0" fill="#FEFFFE" transform="matrix(1.00, 0.00, -0.00, -1.00, 567.3, 796.0)">t</text><text xml:space="preserve" font-family="HelveticaNeue-Light" font-size="50.0" fill="#FEFFFE" transform="matrix(1.00, 0.00, -0.00, -1.00, 582.1, 796.0)">h</text><text xml:space="preserve" font-family="HelveticaNeue-Light" font-size="50.0" fill="#FEFFFE" transform="matrix(1.00, 0.00, -0.00, -1.00, 609.0, 796.0)">e</text><text xml:space="preserve" font-family="HelveticaNeue-Light" font-size="50.0" fill="#FEFFFE" transform="matrix(1.00, 0.00, -0.00, -1.00, 634.9, 796.0)"> </text><text xml:space="preserve" font-family="HelveticaNeue-Light" font-size="50.0" fill="#FEFFFE" transform="matrix(1.00, 0.00, -0.00, -1.00, 648.8, 796.0)">B</text><text xml:space="preserve" font-family="HelveticaNeue-Light" font-size="50.0" fill="#FEFFFE" transform="matrix(1.00, 0.00, -0.00, -1.00, 682.2, 796.0)">S</text><text xml:space="preserve" font-family="HelveticaNeue-Light" font-size="50.0" fill="#FEFFFE" transform="matrix(1.00, 0.00, -0.00, -1.00, 713.7, 796.0)"> </text><text xml:space="preserve" font-family="HelveticaNeue-Light" font-size="50.0" fill="#FEFFFE" transform="matrix(1.00, 0.00, -0.00, -1.00, 727.6, 796.0)">s</text><text xml:space="preserve" font-family="HelveticaNeue-Light" font-size="50.0" fill="#FEFFFE" transform="matrix(1.00, 0.00, -0.00, -1.00, 751.6, 796.0)">a</text><text xml:space="preserve" font-family="HelveticaNeue-Light" font-size="50.0" fill="#FEFFFE" transform="matrix(1.00, 0.00, -0.00, -1.00, 777.6, 796.0)">y</text><text xml:space="preserve" font-family="HelveticaNeue-Light" font-size="50.0" fill="#FEFFFE" transform="matrix(1.00, 0.00, -0.00, -1.00, 800.7, 796.0)">s</text><text xml:space="preserve" font-family="HelveticaNeue-Light" font-size="50.0" fill="#FEFFFE" transform="matrix(1.00, 0.00, -0.00, -1.00, 824.8, 796.0)"> </text><text xml:space="preserve" font-family="HelveticaNeue-Light" font-size="50.0" fill="#FEFFFE" transform="matrix(1.00, 0.00, -0.00, -1.00, 838.6, 796.0)">n</text><text xml:space="preserve" font-family="HelveticaNeue-Light" font-size="50.0" fill="#FEFFFE" transform="matrix(1.00, 0.00, -0.00, -1.00, 865.5, 796.0)">o</text><text xml:space="preserve" font-family="HelveticaNeue-Light" font-size="50.0" fill="#FEFFFE" transform="matrix(1.00, 0.00, -0.00, -1.00, 893.3, 796.0)">t</text><text xml:space="preserve" font-family="HelveticaNeue-Light" font-size="50.0" fill="#FEFFFE" transform="matrix(1.00, 0.00, -0.00, -1.00, 908.1, 796.0)"> </text><text xml:space="preserve" font-family="HelveticaNeue-Light" font-size="50.0" fill="#FEFFFE" transform="matrix(1.00, 0.00, -0.00, -1.00, 922.0, 796.0)">t</text><text xml:space="preserve" font-family="HelveticaNeue-Light" font-size="50.0" fill="#FEFFFE" transform="matrix(1.00, 0.00, -0.00, -1.00, 936.8, 796.0)">o</text><text xml:space="preserve" font-family="HelveticaNeue-Light" font-size="50.0" fill="#FEFFFE" transform="matrix(1.00, 0.00, -0.00, -1.00, 964.6, 796.0)"> </text><text xml:space="preserve" font-family="HelveticaNeue-Light" font-size="50.0" fill="#FEFFFE" transform="matrix(1.00, 0.00, -0.00, -1.00, 978.5, 796.0)">i</text><text xml:space="preserve" font-family="HelveticaNeue-Light" font-size="50.0" fill="#FEFFFE" transform="matrix(1.00, 0.00, -0.00, -1.00, 987.7, 796.0)">n</text><text xml:space="preserve" font-family="HelveticaNeue-Light" font-size="50.0" fill="#FEFFFE" transform="matrix(1.00, 0.00, -0.00, -1.00, 1014.6, 796.0)"> </text><text xml:space="preserve" font-family="HelveticaNeue-Light" font-size="50.0" fill="#FEFFFE" transform="matrix(1.00, 0.00, -0.00, -1.00, 1028.5, 796.0)">t</text><text xml:space="preserve" font-family="HelveticaNeue-Light" font-size="50.0" fill="#FEFFFE" transform="matrix(1.00, 0.00, -0.00, -1.00, 1043.3, 796.0)">h</text><text xml:space="preserve" font-family="HelveticaNeue-Light" font-size="50.0" fill="#FEFFFE" transform="matrix(1.00, 0.00, -0.00, -1.00, 1070.1, 796.0)">e</text><text xml:space="preserve" font-family="HelveticaNeue-Light" font-size="50.0" fill="#FEFFFE" transform="matrix(1.00, 0.00, -0.00, -1.00, 1096.1, 796.0)"> </text><text xml:space="preserve" font-family="HelveticaNeue-Light" font-size="50.0" fill="#FEFFFE" transform="matrix(1.00, 0.00, -0.00, -1.00, 1110.0, 796.0)">p</text><text xml:space="preserve" font-family="HelveticaNeue-Light" font-size="50.0" fill="#FEFFFE" transform="matrix(1.00, 0.00, -0.00, -1.00, 1138.7, 796.0)">a</text><text xml:space="preserve" font-family="HelveticaNeue-Light" font-size="50.0" fill="#FEFFFE" transform="matrix(1.00, 0.00, -0.00, -1.00, 1164.6, 796.0)">r</text><text xml:space="preserve" font-family="HelveticaNeue-Light" font-size="50.0" fill="#FEFFFE" transform="matrix(1.00, 0.00, -0.00, -1.00, 1180.4, 796.0)">a</text><text xml:space="preserve" font-family="HelveticaNeue-Light" font-size="50.0" fill="#FEFFFE" transform="matrix(1.00, 0.00, -0.00, -1.00, 1206.3, 796.0)">m</text><text xml:space="preserve" font-family="HelveticaNeue-Light" font-size="50.0" fill="#FEFFFE" transform="matrix(1.00, 0.00, -0.00, -1.00, 1248.0, 796.0)">e</text><text xml:space="preserve" font-family="HelveticaNeue-Light" font-size="50.0" fill="#FEFFFE" transform="matrix(1.00, 0.00, -0.00, -1.00, 1274.0, 796.0)">t</text><text xml:space="preserve" font-family="HelveticaNeue-Light" font-size="50.0" fill="#FEFFFE" transform="matrix(1.00, 0.00, -0.00, -1.00, 1288.8, 796.0)">e</text><text xml:space="preserve" font-family="HelveticaNeue-Light" font-size="50.0" fill="#FEFFFE" transform="matrix(1.00, 0.00, -0.00, -1.00, 1314.7, 796.0)">r</text><text xml:space="preserve" font-family="HelveticaNeue-Light" font-size="50.0" fill="#FEFFFE" transform="matrix(1.00, 0.00, -0.00, -1.00, 1330.5, 796.0)">s</text><text xml:space="preserve" font-family="HelveticaNeue-Light" font-size="50.0" fill="#FEFFFE" transform="matrix(1.00, 0.00, -0.00, -1.00, 1354.5, 796.0)">)</text><text xml:space="preserve" font-family="HelveticaNeue-Light" font-size="50.0" fill="#FEFFFE" transform="matrix(1.00, 0.00, -0.00, -1.00, 1366.5, 796.0)"> </text><text xml:space="preserve" font-family="HelveticaNeue-Light" font-size="50.0" fill="#FEFFFE" transform="matrix(1.00, 0.00, -0.00, -1.00, 1380.5, 796.0)">g</text><text xml:space="preserve" font-family="HelveticaNeue-Light" font-size="50.0" fill="#FEFFFE" transform="matrix(1.00, 0.00, -0.00, -1.00, 1408.2, 796.0)">i</text><text xml:space="preserve" font-family="HelveticaNeue-Light" font-size="50.0" fill="#FEFFFE" transform="matrix(1.00, 0.00, -0.00, -1.00, 1417.5, 796.0)">v</text><text xml:space="preserve" font-family="HelveticaNeue-Light" font-size="50.0" fill="#FEFFFE" transform="matrix(1.00, 0.00, -0.00, -1.00, 1440.7, 796.0)">e</text><text xml:space="preserve" font-family="HelveticaNeue-Light" font-size="50.0" fill="#FEFFFE" transform="matrix(1.00, 0.00, -0.00, -1.00, 1466.6, 796.0)">s</text><text xml:space="preserve" font-family="HelveticaNeue-Light" font-size="50.0" fill="#FEFFFE" transform="matrix(1.00, 0.00, -0.00, -1.00, 1490.7, 796.0)"> </text><text xml:space="preserve" font-family="HelveticaNeue-Light" font-size="50.0" fill="#FEFFFE" transform="matrix(1.00, 0.00, -0.00, -1.00, 1504.6, 796.0)">t</text><text xml:space="preserve" font-family="HelveticaNeue-Light" font-size="50.0" fill="#FEFFFE" transform="matrix(1.00, 0.00, -0.00, -1.00, 1519.4, 796.0)">h</text><text xml:space="preserve" font-family="HelveticaNeue-Light" font-size="50.0" fill="#FEFFFE" transform="matrix(1.00, 0.00, -0.00, -1.00, 1546.2, 796.0)">e</text><text xml:space="preserve" font-family="HelveticaNeue-Light" font-size="50.0" fill="#FEFFFE" transform="matrix(1.00, 0.00, -0.00, -1.00, 1572.2, 796.0)"> </text><text xml:space="preserve" font-family="HelveticaNeue-Light" font-size="50.0" fill="#FEFFFE" transform="matrix(1.00, 0.00, -0.00, -1.00, 1586.1, 796.0)">E</text><text xml:space="preserve" font-family="HelveticaNeue-Light" font-size="50.0" fill="#FEFFFE" transform="matrix(1.00, 0.00, -0.00, -1.00, 1615.7, 796.0)">S</text><text xml:space="preserve" font-family="HelveticaNeue-Light" font-size="50.0" fill="#FEFFFE" transform="matrix(1.00, 0.00, -0.00, -1.00, 1647.2, 796.0)">N</text><text xml:space="preserve" font-family="HelveticaNeue-Light" font-size="50.0" fill="#FEFFFE" transform="matrix(1.00, 0.00, -0.00, -1.00, 1682.4, 796.0)">:</text><g><clipPath id="clip-813"><path d="M 47.0 715.0 L 1873.0 715.0 L 1873.0 477.0 L 47.0 477.0 Z M 47.4 714.6 "></path></clipPath><g clip-path="url(#clip-813)"><image xlink:href="B9672C1A7AD0EDA52F1C61027B9C7520.png" width="960.00" height="124.00" transform="matrix(1.90, 0.00, -0.00, -1.92, 47.0, 715.0)"></image></g></g><path d="M 3.8 338.0 L 1075.0 338.0 L 1075.0 291.0 L 3.8 291.0 Z M 3.8 338.0 " fill="#000000"></path><path d="M 3.8 291.0 L 865.0 291.0 L 865.0 244.0 L 3.8 244.0 Z M 3.8 291.0 " fill="#000000"></path><path d="M 3.8 244.0 L 1915.2 244.0 L 1915.2 197.0 L 3.8 197.0 Z M 3.8 244.0 " fill="#000000"></path><path d="M 3.8 197.0 L 591.9 197.0 L 591.9 150.0 L 3.8 150.0 Z M 3.8 197.0 " fill="#000000"></path><g><clipPath id="clip-814"><path d="M 0.0 105.9 L 1920.0 105.9 L 1920.0 338.0 L 0.0 338.0 Z M 0.0 105.9 "></path></clipPath><g clip-path="url(#clip-814)"><path d="M 3.8 150.0 L 360.9 150.0 L 360.9 103.0 L 3.8 103.0 Z M 3.8 150.0 " fill="#000000"></path></g></g><text xml:space="preserve" font-family="Monaco" font-size="35.0" fill="#FFFFFF" transform="matrix(1.00, 0.00, -0.00, -1.00, 4.0, 303.0)"> </text><text xml:space="preserve" font-family="Monaco" font-size="35.0" fill="#FFFFFF" transform="matrix(1.00, 0.00, -0.00, -1.00, 25.0, 303.0)"> </text><text xml:space="preserve" font-family="Monaco" font-size="35.0" fill="#FFFFFF" transform="matrix(1.00, 0.00, -0.00, -1.00, 46.0, 303.0)"> </text><text xml:space="preserve" font-family="Monaco" font-size="35.0" fill="#FFFFFF" transform="matrix(1.00, 0.00, -0.00, -1.00, 67.0, 303.0)"> </text><text xml:space="preserve" font-family="Monaco" font-size="35.0" fill="#FFFFFF" transform="matrix(1.00, 0.00, -0.00, -1.00, 88.0, 303.0)"> </text><text xml:space="preserve" font-family="Monaco" font-size="35.0" fill="#FFFFFF" transform="matrix(1.00, 0.00, -0.00, -1.00, 109.0, 303.0)"> </text><text xml:space="preserve" font-family="Monaco" font-size="35.0" fill="#FFFFFF" transform="matrix(1.00, 0.00, -0.00, -1.00, 130.0, 303.0)"> </text><text xml:space="preserve" font-family="Monaco" font-size="35.0" fill="#FFFFFF" transform="matrix(1.00, 0.00, -0.00, -1.00, 151.0, 303.0)"> </text><text xml:space="preserve" font-family="Monaco" font-size="35.0" fill="#FFFFFF" transform="matrix(1.00, 0.00, -0.00, -1.00, 172.1, 303.0)"> </text><text xml:space="preserve" font-family="Monaco" font-size="35.0" fill="#FFFFFF" transform="matrix(1.00, 0.00, -0.00, -1.00, 193.1, 303.0)"> </text><text xml:space="preserve" font-family="Monaco" font-size="35.0" fill="#FFFFFF" transform="matrix(1.00, 0.00, -0.00, -1.00, 214.1, 303.0)"> </text><text xml:space="preserve" font-family="Monaco" font-size="35.0" fill="#FFFFFF" transform="matrix(1.00, 0.00, -0.00, -1.00, 235.1, 303.0)"> </text><text xml:space="preserve" font-family="Monaco" font-size="35.0" fill="#FFFFFF" transform="matrix(1.00, 0.00, -0.00, -1.00, 256.1, 303.0)"> </text><text xml:space="preserve" font-family="Monaco" font-size="35.0" fill="#FFFFFF" transform="matrix(1.00, 0.00, -0.00, -1.00, 277.1, 303.0)"> </text><text xml:space="preserve" font-family="Monaco" font-size="35.0" fill="#FFFFFF" transform="matrix(1.00, 0.00, -0.00, -1.00, 298.1, 303.0)"> </text><text xml:space="preserve" font-family="Monaco" font-size="35.0" fill="#FFFFFF" transform="matrix(1.00, 0.00, -0.00, -1.00, 319.1, 303.0)"> </text><text xml:space="preserve" font-family="Monaco" font-size="35.0" fill="#FFFFFF" transform="matrix(1.00, 0.00, -0.00, -1.00, 340.1, 303.0)">u</text><text xml:space="preserve" font-family="Monaco" font-size="35.0" fill="#FFFFFF" transform="matrix(1.00, 0.00, -0.00, -1.00, 361.1, 303.0)">n</text><text xml:space="preserve" font-family="Monaco" font-size="35.0" fill="#FFFFFF" transform="matrix(1.00, 0.00, -0.00, -1.00, 382.1, 303.0)">s</text><text xml:space="preserve" font-family="Monaco" font-size="35.0" fill="#FFFFFF" transform="matrix(1.00, 0.00, -0.00, -1.00, 403.1, 303.0)">i</text><text xml:space="preserve" font-family="Monaco" font-size="35.0" fill="#FFFFFF" transform="matrix(1.00, 0.00, -0.00, -1.00, 424.1, 303.0)">g</text><text xml:space="preserve" font-family="Monaco" font-size="35.0" fill="#FFFFFF" transform="matrix(1.00, 0.00, -0.00, -1.00, 445.1, 303.0)">n</text><text xml:space="preserve" font-family="Monaco" font-size="35.0" fill="#FFFFFF" transform="matrix(1.00, 0.00, -0.00, -1.00, 466.2, 303.0)">e</text><text xml:space="preserve" font-family="Monaco" font-size="35.0" fill="#FFFFFF" transform="matrix(1.00, 0.00, -0.00, -1.00, 487.2, 303.0)">d</text><text xml:space="preserve" font-family="Monaco" font-size="35.0" fill="#FFFFFF" transform="matrix(1.00, 0.00, -0.00, -1.00, 508.2, 303.0)"> </text><text xml:space="preserve" font-family="Monaco" font-size="35.0" fill="#FFFFFF" transform="matrix(1.00, 0.00, -0.00, -1.00, 529.2, 303.0)">c</text><text xml:space="preserve" font-family="Monaco" font-size="35.0" fill="#FFFFFF" transform="matrix(1.00, 0.00, -0.00, -1.00, 550.2, 303.0)">h</text><text xml:space="preserve" font-family="Monaco" font-size="35.0" fill="#FFFFFF" transform="matrix(1.00, 0.00, -0.00, -1.00, 571.2, 303.0)">a</text><text xml:space="preserve" font-family="Monaco" font-size="35.0" fill="#FFFFFF" transform="matrix(1.00, 0.00, -0.00, -1.00, 592.2, 303.0)">r</text><text xml:space="preserve" font-family="Monaco" font-size="35.0" fill="#FFFFFF" transform="matrix(1.00, 0.00, -0.00, -1.00, 613.2, 303.0)"> </text><text xml:space="preserve" font-family="Monaco" font-size="35.0" fill="#FFFFFF" transform="matrix(1.00, 0.00, -0.00, -1.00, 634.2, 303.0)">n</text><text xml:space="preserve" font-family="Monaco" font-size="35.0" fill="#FFFFFF" transform="matrix(1.00, 0.00, -0.00, -1.00, 655.2, 303.0)">a</text><text xml:space="preserve" font-family="Monaco" font-size="35.0" fill="#FFFFFF" transform="matrix(1.00, 0.00, -0.00, -1.00, 676.2, 303.0)">w</text><text xml:space="preserve" font-family="Monaco" font-size="35.0" fill="#FFFFFF" transform="matrix(1.00, 0.00, -0.00, -1.00, 697.2, 303.0)">c</text><text xml:space="preserve" font-family="Monaco" font-size="35.0" fill="#FFFFFF" transform="matrix(1.00, 0.00, -0.00, -1.00, 718.2, 303.0)"> </text><text xml:space="preserve" font-family="Monaco" font-size="35.0" fill="#FFFFFF" transform="matrix(1.00, 0.00, -0.00, -1.00, 739.2, 303.0)">=</text><text xml:space="preserve" font-family="Monaco" font-size="35.0" fill="#FFFFFF" transform="matrix(1.00, 0.00, -0.00, -1.00, 760.2, 303.0)"> </text><text xml:space="preserve" font-family="Monaco" font-size="35.0" fill="#FFFFFF" transform="matrix(1.00, 0.00, -0.00, -1.00, 781.3, 303.0)">w</text><text xml:space="preserve" font-family="Monaco" font-size="35.0" fill="#FFFFFF" transform="matrix(1.00, 0.00, -0.00, -1.00, 802.3, 303.0)">o</text><text xml:space="preserve" font-family="Monaco" font-size="35.0" fill="#FFFFFF" transform="matrix(1.00, 0.00, -0.00, -1.00, 823.3, 303.0)">r</text><text xml:space="preserve" font-family="Monaco" font-size="35.0" fill="#FFFFFF" transform="matrix(1.00, 0.00, -0.00, -1.00, 844.3, 303.0)">d</text><text xml:space="preserve" font-family="Monaco" font-size="35.0" fill="#FFFFFF" transform="matrix(1.00, 0.00, -0.00, -1.00, 865.3, 303.0)">a</text><text xml:space="preserve" font-family="Monaco" font-size="35.0" fill="#FFFFFF" transform="matrix(1.00, 0.00, -0.00, -1.00, 886.3, 303.0)">.</text><text xml:space="preserve" font-family="Monaco" font-size="35.0" fill="#FFFFFF" transform="matrix(1.00, 0.00, -0.00, -1.00, 907.3, 303.0)">N</text><text xml:space="preserve" font-family="Monaco" font-size="35.0" fill="#FFFFFF" transform="matrix(1.00, 0.00, -0.00, -1.00, 928.3, 303.0)">A</text><text xml:space="preserve" font-family="Monaco" font-size="35.0" fill="#FFFFFF" transform="matrix(1.00, 0.00, -0.00, -1.00, 949.3, 303.0)">W</text><text xml:space="preserve" font-family="Monaco" font-size="35.0" fill="#FFFFFF" transform="matrix(1.00, 0.00, -0.00, -1.00, 970.3, 303.0)">C</text><text xml:space="preserve" font-family="Monaco" font-size="35.0" fill="#FFFFFF" transform="matrix(1.00, 0.00, -0.00, -1.00, 991.3, 303.0)">-</text><text xml:space="preserve" font-family="Monaco" font-size="35.0" fill="#FFFFFF" transform="matrix(1.00, 0.00, -0.00, -1.00, 1012.3, 303.0)">2</text><text xml:space="preserve" font-family="Monaco" font-size="35.0" fill="#FFFFFF" transform="matrix(1.00, 0.00, -0.00, -1.00, 1033.3, 303.0)">;</text><text xml:space="preserve" font-family="Monaco" font-size="35.0" fill="#FFFFFF" transform="matrix(1.00, 0.00, -0.00, -1.00, 4.0, 256.0)"> </text><text xml:space="preserve" font-family="Monaco" font-size="35.0" fill="#FFFFFF" transform="matrix(1.00, 0.00, -0.00, -1.00, 25.0, 256.0)"> </text><text xml:space="preserve" font-family="Monaco" font-size="35.0" fill="#FFFFFF" transform="matrix(1.00, 0.00, -0.00, -1.00, 46.0, 256.0)"> </text><text xml:space="preserve" font-family="Monaco" font-size="35.0" fill="#FFFFFF" transform="matrix(1.00, 0.00, -0.00, -1.00, 67.0, 256.0)"> </text><text xml:space="preserve" font-family="Monaco" font-size="35.0" fill="#FFFFFF" transform="matrix(1.00, 0.00, -0.00, -1.00, 88.0, 256.0)"> </text><text xml:space="preserve" font-family="Monaco" font-size="35.0" fill="#FFFFFF" transform="matrix(1.00, 0.00, -0.00, -1.00, 109.0, 256.0)"> </text><text xml:space="preserve" font-family="Monaco" font-size="35.0" fill="#FFFFFF" transform="matrix(1.00, 0.00, -0.00, -1.00, 130.0, 256.0)"> </text><text xml:space="preserve" font-family="Monaco" font-size="35.0" fill="#FFFFFF" transform="matrix(1.00, 0.00, -0.00, -1.00, 151.0, 256.0)"> </text><text xml:space="preserve" font-family="Monaco" font-size="35.0" fill="#FFFFFF" transform="matrix(1.00, 0.00, -0.00, -1.00, 172.1, 256.0)"> </text><text xml:space="preserve" font-family="Monaco" font-size="35.0" fill="#FFFFFF" transform="matrix(1.00, 0.00, -0.00, -1.00, 193.1, 256.0)"> </text><text xml:space="preserve" font-family="Monaco" font-size="35.0" fill="#FFFFFF" transform="matrix(1.00, 0.00, -0.00, -1.00, 214.1, 256.0)"> </text><text xml:space="preserve" font-family="Monaco" font-size="35.0" fill="#FFFFFF" transform="matrix(1.00, 0.00, -0.00, -1.00, 235.1, 256.0)"> </text><text xml:space="preserve" font-family="Monaco" font-size="35.0" fill="#FFFFFF" transform="matrix(1.00, 0.00, -0.00, -1.00, 256.1, 256.0)"> </text><text xml:space="preserve" font-family="Monaco" font-size="35.0" fill="#FFFFFF" transform="matrix(1.00, 0.00, -0.00, -1.00, 277.1, 256.0)"> </text><text xml:space="preserve" font-family="Monaco" font-size="35.0" fill="#FFFFFF" transform="matrix(1.00, 0.00, -0.00, -1.00, 298.1, 256.0)"> </text><text xml:space="preserve" font-family="Monaco" font-size="35.0" fill="#FFFFFF" transform="matrix(1.00, 0.00, -0.00, -1.00, 319.1, 256.0)"> </text><text xml:space="preserve" font-family="Monaco" font-size="35.0" fill="#FFFFFF" transform="matrix(1.00, 0.00, -0.00, -1.00, 340.1, 256.0)">i</text><text xml:space="preserve" font-family="Monaco" font-size="35.0" fill="#FFFFFF" transform="matrix(1.00, 0.00, -0.00, -1.00, 361.1, 256.0)">f</text><text xml:space="preserve" font-family="Monaco" font-size="35.0" fill="#FFFFFF" transform="matrix(1.00, 0.00, -0.00, -1.00, 382.1, 256.0)">(</text><text xml:space="preserve" font-family="Monaco" font-size="35.0" fill="#FFFFFF" transform="matrix(1.00, 0.00, -0.00, -1.00, 403.1, 256.0)">w</text><text xml:space="preserve" font-family="Monaco" font-size="35.0" fill="#FFFFFF" transform="matrix(1.00, 0.00, -0.00, -1.00, 424.1, 256.0)">o</text><text xml:space="preserve" font-family="Monaco" font-size="35.0" fill="#FFFFFF" transform="matrix(1.00, 0.00, -0.00, -1.00, 445.1, 256.0)">r</text><text xml:space="preserve" font-family="Monaco" font-size="35.0" fill="#FFFFFF" transform="matrix(1.00, 0.00, -0.00, -1.00, 466.2, 256.0)">d</text><text xml:space="preserve" font-family="Monaco" font-size="35.0" fill="#FFFFFF" transform="matrix(1.00, 0.00, -0.00, -1.00, 487.2, 256.0)">c</text><text xml:space="preserve" font-family="Monaco" font-size="35.0" fill="#FFFFFF" transform="matrix(1.00, 0.00, -0.00, -1.00, 508.2, 256.0)">.</text><text xml:space="preserve" font-family="Monaco" font-size="35.0" fill="#FFFFFF" transform="matrix(1.00, 0.00, -0.00, -1.00, 529.2, 256.0)">N</text><text xml:space="preserve" font-family="Monaco" font-size="35.0" fill="#FFFFFF" transform="matrix(1.00, 0.00, -0.00, -1.00, 550.2, 256.0)">A</text><text xml:space="preserve" font-family="Monaco" font-size="35.0" fill="#FFFFFF" transform="matrix(1.00, 0.00, -0.00, -1.00, 571.2, 256.0)">W</text><text xml:space="preserve" font-family="Monaco" font-size="35.0" fill="#FFFFFF" transform="matrix(1.00, 0.00, -0.00, -1.00, 592.2, 256.0)">C</text><text xml:space="preserve" font-family="Monaco" font-size="35.0" fill="#FFFFFF" transform="matrix(1.00, 0.00, -0.00, -1.00, 613.2, 256.0)"> </text><text xml:space="preserve" font-family="Monaco" font-size="35.0" fill="#FFFFFF" transform="matrix(1.00, 0.00, -0.00, -1.00, 634.2, 256.0)">!</text><text xml:space="preserve" font-family="Monaco" font-size="35.0" fill="#FFFFFF" transform="matrix(1.00, 0.00, -0.00, -1.00, 655.2, 256.0)">=</text><text xml:space="preserve" font-family="Monaco" font-size="35.0" fill="#FFFFFF" transform="matrix(1.00, 0.00, -0.00, -1.00, 676.2, 256.0)"> </text><text xml:space="preserve" font-family="Monaco" font-size="35.0" fill="#FFFFFF" transform="matrix(1.00, 0.00, -0.00, -1.00, 697.2, 256.0)">n</text><text xml:space="preserve" font-family="Monaco" font-size="35.0" fill="#FFFFFF" transform="matrix(1.00, 0.00, -0.00, -1.00, 718.2, 256.0)">a</text><text xml:space="preserve" font-family="Monaco" font-size="35.0" fill="#FFFFFF" transform="matrix(1.00, 0.00, -0.00, -1.00, 739.2, 256.0)">w</text><text xml:space="preserve" font-family="Monaco" font-size="35.0" fill="#FFFFFF" transform="matrix(1.00, 0.00, -0.00, -1.00, 760.2, 256.0)">c</text><text xml:space="preserve" font-family="Monaco" font-size="35.0" fill="#FFFFFF" transform="matrix(1.00, 0.00, -0.00, -1.00, 781.3, 256.0)">)</text><text xml:space="preserve" font-family="Monaco" font-size="35.0" fill="#FFFFFF" transform="matrix(1.00, 0.00, -0.00, -1.00, 802.3, 256.0)"> </text><text xml:space="preserve" font-family="Monaco" font-size="35.0" fill="#FFFFFF" transform="matrix(1.00, 0.00, -0.00, -1.00, 823.3, 256.0)">{</text><text xml:space="preserve" font-family="Monaco" font-size="35.0" fill="#FFFFFF" transform="matrix(1.00, 0.00, -0.00, -1.00, 4.0, 209.0)"> </text><text xml:space="preserve" font-family="Monaco" font-size="35.0" fill="#FFFFFF" transform="matrix(1.00, 0.00, -0.00, -1.00, 25.0, 209.0)"> </text><text xml:space="preserve" font-family="Monaco" font-size="35.0" fill="#FFFFFF" transform="matrix(1.00, 0.00, -0.00, -1.00, 46.0, 209.0)"> </text><text xml:space="preserve" font-family="Monaco" font-size="35.0" fill="#FFFFFF" transform="matrix(1.00, 0.00, -0.00, -1.00, 67.0, 209.0)"> </text><text xml:space="preserve" font-family="Monaco" font-size="35.0" fill="#FFFFFF" transform="matrix(1.00, 0.00, -0.00, -1.00, 88.0, 209.0)"> </text><text xml:space="preserve" font-family="Monaco" font-size="35.0" fill="#FFFFFF" transform="matrix(1.00, 0.00, -0.00, -1.00, 109.0, 209.0)"> </text><text xml:space="preserve" font-family="Monaco" font-size="35.0" fill="#FFFFFF" transform="matrix(1.00, 0.00, -0.00, -1.00, 130.0, 209.0)"> </text><text xml:space="preserve" font-family="Monaco" font-size="35.0" fill="#FFFFFF" transform="matrix(1.00, 0.00, -0.00, -1.00, 151.0, 209.0)"> </text><text xml:space="preserve" font-family="Monaco" font-size="35.0" fill="#FFFFFF" transform="matrix(1.00, 0.00, -0.00, -1.00, 172.1, 209.0)"> </text><text xml:space="preserve" font-family="Monaco" font-size="35.0" fill="#FFFFFF" transform="matrix(1.00, 0.00, -0.00, -1.00, 193.1, 209.0)"> </text><text xml:space="preserve" font-family="Monaco" font-size="35.0" fill="#FFFFFF" transform="matrix(1.00, 0.00, -0.00, -1.00, 214.1, 209.0)"> </text><text xml:space="preserve" font-family="Monaco" font-size="35.0" fill="#FFFFFF" transform="matrix(1.00, 0.00, -0.00, -1.00, 235.1, 209.0)"> </text><text xml:space="preserve" font-family="Monaco" font-size="35.0" fill="#FFFFFF" transform="matrix(1.00, 0.00, -0.00, -1.00, 256.1, 209.0)"> </text><text xml:space="preserve" font-family="Monaco" font-size="35.0" fill="#FFFFFF" transform="matrix(1.00, 0.00, -0.00, -1.00, 277.1, 209.0)"> </text><text xml:space="preserve" font-family="Monaco" font-size="35.0" fill="#FFFFFF" transform="matrix(1.00, 0.00, -0.00, -1.00, 298.1, 209.0)"> </text><text xml:space="preserve" font-family="Monaco" font-size="35.0" fill="#FFFFFF" transform="matrix(1.00, 0.00, -0.00, -1.00, 319.1, 209.0)"> </text><text xml:space="preserve" font-family="Monaco" font-size="35.0" fill="#FFFFFF" transform="matrix(1.00, 0.00, -0.00, -1.00, 340.1, 209.0)"> </text><text xml:space="preserve" font-family="Monaco" font-size="35.0" fill="#FFFFFF" transform="matrix(1.00, 0.00, -0.00, -1.00, 361.1, 209.0)"> </text><text xml:space="preserve" font-family="Monaco" font-size="35.0" fill="#FFFFFF" transform="matrix(1.00, 0.00, -0.00, -1.00, 382.1, 209.0)"> </text><text xml:space="preserve" font-family="Monaco" font-size="35.0" fill="#FFFFFF" transform="matrix(1.00, 0.00, -0.00, -1.00, 403.1, 209.0)"> </text><text xml:space="preserve" font-family="Monaco" font-size="35.0" fill="#FFFFFF" transform="matrix(1.00, 0.00, -0.00, -1.00, 424.1, 209.0)">L</text><text xml:space="preserve" font-family="Monaco" font-size="35.0" fill="#FFFFFF" transform="matrix(1.00, 0.00, -0.00, -1.00, 445.1, 209.0)">O</text><text xml:space="preserve" font-family="Monaco" font-size="35.0" fill="#FFFFFF" transform="matrix(1.00, 0.00, -0.00, -1.00, 466.2, 209.0)">G</text><text xml:space="preserve" font-family="Monaco" font-size="35.0" fill="#FFFFFF" transform="matrix(1.00, 0.00, -0.00, -1.00, 487.2, 209.0)">_</text><text xml:space="preserve" font-family="Monaco" font-size="35.0" fill="#FFFFFF" transform="matrix(1.00, 0.00, -0.00, -1.00, 508.2, 209.0)">W</text><text xml:space="preserve" font-family="Monaco" font-size="35.0" fill="#FFFFFF" transform="matrix(1.00, 0.00, -0.00, -1.00, 529.2, 209.0)">A</text><text xml:space="preserve" font-family="Monaco" font-size="35.0" fill="#FFFFFF" transform="matrix(1.00, 0.00, -0.00, -1.00, 550.2, 209.0)">R</text><text xml:space="preserve" font-family="Monaco" font-size="35.0" fill="#FFFFFF" transform="matrix(1.00, 0.00, -0.00, -1.00, 571.2, 209.0)">N</text><text xml:space="preserve" font-family="Monaco" font-size="35.0" fill="#FFFFFF" transform="matrix(1.00, 0.00, -0.00, -1.00, 592.2, 209.0)">I</text><text xml:space="preserve" font-family="Monaco" font-size="35.0" fill="#FFFFFF" transform="matrix(1.00, 0.00, -0.00, -1.00, 613.2, 209.0)">N</text><text xml:space="preserve" font-family="Monaco" font-size="35.0" fill="#FFFFFF" transform="matrix(1.00, 0.00, -0.00, -1.00, 634.2, 209.0)">G</text><text xml:space="preserve" font-family="Monaco" font-size="35.0" fill="#FFFFFF" transform="matrix(1.00, 0.00, -0.00, -1.00, 655.2, 209.0)">(</text><text xml:space="preserve" font-family="Monaco" font-size="35.0" fill="#FFFFFF" transform="matrix(1.00, 0.00, -0.00, -1.00, 676.2, 209.0)">"</text><text xml:space="preserve" font-family="Monaco" font-size="35.0" fill="#FFFFFF" transform="matrix(1.00, 0.00, -0.00, -1.00, 697.2, 209.0)">p</text><text xml:space="preserve" font-family="Monaco" font-size="35.0" fill="#FFFFFF" transform="matrix(1.00, 0.00, -0.00, -1.00, 718.2, 209.0)">r</text><text xml:space="preserve" font-family="Monaco" font-size="35.0" fill="#FFFFFF" transform="matrix(1.00, 0.00, -0.00, -1.00, 739.2, 209.0)">o</text><text xml:space="preserve" font-family="Monaco" font-size="35.0" fill="#FFFFFF" transform="matrix(1.00, 0.00, -0.00, -1.00, 760.2, 209.0)">t</text><text xml:space="preserve" font-family="Monaco" font-size="35.0" fill="#FFFFFF" transform="matrix(1.00, 0.00, -0.00, -1.00, 781.3, 209.0)">o</text><text xml:space="preserve" font-family="Monaco" font-size="35.0" fill="#FFFFFF" transform="matrix(1.00, 0.00, -0.00, -1.00, 802.3, 209.0)">c</text><text xml:space="preserve" font-family="Monaco" font-size="35.0" fill="#FFFFFF" transform="matrix(1.00, 0.00, -0.00, -1.00, 823.3, 209.0)">o</text><text xml:space="preserve" font-family="Monaco" font-size="35.0" fill="#FFFFFF" transform="matrix(1.00, 0.00, -0.00, -1.00, 844.3, 209.0)">l</text><text xml:space="preserve" font-family="Monaco" font-size="35.0" fill="#FFFFFF" transform="matrix(1.00, 0.00, -0.00, -1.00, 865.3, 209.0)"> </text><text xml:space="preserve" font-family="Monaco" font-size="35.0" fill="#FFFFFF" transform="matrix(1.00, 0.00, -0.00, -1.00, 886.3, 209.0)">v</text><text xml:space="preserve" font-family="Monaco" font-size="35.0" fill="#FFFFFF" transform="matrix(1.00, 0.00, -0.00, -1.00, 907.3, 209.0)">i</text><text xml:space="preserve" font-family="Monaco" font-size="35.0" fill="#FFFFFF" transform="matrix(1.00, 0.00, -0.00, -1.00, 928.3, 209.0)">o</text><text xml:space="preserve" font-family="Monaco" font-size="35.0" fill="#FFFFFF" transform="matrix(1.00, 0.00, -0.00, -1.00, 949.3, 209.0)">l</text><text xml:space="preserve" font-family="Monaco" font-size="35.0" fill="#FFFFFF" transform="matrix(1.00, 0.00, -0.00, -1.00, 970.3, 209.0)">a</text><text xml:space="preserve" font-family="Monaco" font-size="35.0" fill="#FFFFFF" transform="matrix(1.00, 0.00, -0.00, -1.00, 991.3, 209.0)">t</text><text xml:space="preserve" font-family="Monaco" font-size="35.0" fill="#FFFFFF" transform="matrix(1.00, 0.00, -0.00, -1.00, 1012.3, 209.0)">i</text><text xml:space="preserve" font-family="Monaco" font-size="35.0" fill="#FFFFFF" transform="matrix(1.00, 0.00, -0.00, -1.00, 1033.3, 209.0)">o</text><text xml:space="preserve" font-family="Monaco" font-size="35.0" fill="#FFFFFF" transform="matrix(1.00, 0.00, -0.00, -1.00, 1054.3, 209.0)">n</text><text xml:space="preserve" font-family="Monaco" font-size="35.0" fill="#FFFFFF" transform="matrix(1.00, 0.00, -0.00, -1.00, 1075.4, 209.0)">!</text><text xml:space="preserve" font-family="Monaco" font-size="35.0" fill="#FFFFFF" transform="matrix(1.00, 0.00, -0.00, -1.00, 1096.4, 209.0)"> </text><text xml:space="preserve" font-family="Monaco" font-size="35.0" fill="#FFFFFF" transform="matrix(1.00, 0.00, -0.00, -1.00, 1117.4, 209.0)"> </text><text xml:space="preserve" font-family="Monaco" font-size="35.0" fill="#FFFFFF" transform="matrix(1.00, 0.00, -0.00, -1.00, 1138.4, 209.0)">W</text><text xml:space="preserve" font-family="Monaco" font-size="35.0" fill="#FFFFFF" transform="matrix(1.00, 0.00, -0.00, -1.00, 1159.4, 209.0)">o</text><text xml:space="preserve" font-family="Monaco" font-size="35.0" fill="#FFFFFF" transform="matrix(1.00, 0.00, -0.00, -1.00, 1180.4, 209.0)">r</text><text xml:space="preserve" font-family="Monaco" font-size="35.0" fill="#FFFFFF" transform="matrix(1.00, 0.00, -0.00, -1.00, 1201.4, 209.0)">d</text><text xml:space="preserve" font-family="Monaco" font-size="35.0" fill="#FFFFFF" transform="matrix(1.00, 0.00, -0.00, -1.00, 1222.4, 209.0)"> </text><text xml:space="preserve" font-family="Monaco" font-size="35.0" fill="#FFFFFF" transform="matrix(1.00, 0.00, -0.00, -1.00, 1243.4, 209.0)">C</text><text xml:space="preserve" font-family="Monaco" font-size="35.0" fill="#FFFFFF" transform="matrix(1.00, 0.00, -0.00, -1.00, 1264.4, 209.0)"> </text><text xml:space="preserve" font-family="Monaco" font-size="35.0" fill="#FFFFFF" transform="matrix(1.00, 0.00, -0.00, -1.00, 1285.4, 209.0)">N</text><text xml:space="preserve" font-family="Monaco" font-size="35.0" fill="#FFFFFF" transform="matrix(1.00, 0.00, -0.00, -1.00, 1306.4, 209.0)">A</text><text xml:space="preserve" font-family="Monaco" font-size="35.0" fill="#FFFFFF" transform="matrix(1.00, 0.00, -0.00, -1.00, 1327.4, 209.0)">W</text><text xml:space="preserve" font-family="Monaco" font-size="35.0" fill="#FFFFFF" transform="matrix(1.00, 0.00, -0.00, -1.00, 1348.4, 209.0)">C</text><text xml:space="preserve" font-family="Monaco" font-size="35.0" fill="#FFFFFF" transform="matrix(1.00, 0.00, -0.00, -1.00, 1369.4, 209.0)"> </text><text xml:space="preserve" font-family="Monaco" font-size="35.0" fill="#FFFFFF" transform="matrix(1.00, 0.00, -0.00, -1.00, 1390.5, 209.0)">d</text><text xml:space="preserve" font-family="Monaco" font-size="35.0" fill="#FFFFFF" transform="matrix(1.00, 0.00, -0.00, -1.00, 1411.5, 209.0)">o</text><text xml:space="preserve" font-family="Monaco" font-size="35.0" fill="#FFFFFF" transform="matrix(1.00, 0.00, -0.00, -1.00, 1432.5, 209.0)">e</text><text xml:space="preserve" font-family="Monaco" font-size="35.0" fill="#FFFFFF" transform="matrix(1.00, 0.00, -0.00, -1.00, 1453.5, 209.0)">s</text><text xml:space="preserve" font-family="Monaco" font-size="35.0" fill="#FFFFFF" transform="matrix(1.00, 0.00, -0.00, -1.00, 1474.5, 209.0)"> </text><text xml:space="preserve" font-family="Monaco" font-size="35.0" fill="#FFFFFF" transform="matrix(1.00, 0.00, -0.00, -1.00, 1495.5, 209.0)">n</text><text xml:space="preserve" font-family="Monaco" font-size="35.0" fill="#FFFFFF" transform="matrix(1.00, 0.00, -0.00, -1.00, 1516.5, 209.0)">o</text><text xml:space="preserve" font-family="Monaco" font-size="35.0" fill="#FFFFFF" transform="matrix(1.00, 0.00, -0.00, -1.00, 1537.5, 209.0)">t</text><text xml:space="preserve" font-family="Monaco" font-size="35.0" fill="#FFFFFF" transform="matrix(1.00, 0.00, -0.00, -1.00, 1558.5, 209.0)"> </text><text xml:space="preserve" font-family="Monaco" font-size="35.0" fill="#FFFFFF" transform="matrix(1.00, 0.00, -0.00, -1.00, 1579.5, 209.0)">a</text><text xml:space="preserve" font-family="Monaco" font-size="35.0" fill="#FFFFFF" transform="matrix(1.00, 0.00, -0.00, -1.00, 1600.5, 209.0)">g</text><text xml:space="preserve" font-family="Monaco" font-size="35.0" fill="#FFFFFF" transform="matrix(1.00, 0.00, -0.00, -1.00, 1621.5, 209.0)">r</text><text xml:space="preserve" font-family="Monaco" font-size="35.0" fill="#FFFFFF" transform="matrix(1.00, 0.00, -0.00, -1.00, 1642.5, 209.0)">e</text><text xml:space="preserve" font-family="Monaco" font-size="35.0" fill="#FFFFFF" transform="matrix(1.00, 0.00, -0.00, -1.00, 1663.5, 209.0)">e</text><text xml:space="preserve" font-family="Monaco" font-size="35.0" fill="#FFFFFF" transform="matrix(1.00, 0.00, -0.00, -1.00, 1684.6, 209.0)"> </text><text xml:space="preserve" font-family="Monaco" font-size="35.0" fill="#FFFFFF" transform="matrix(1.00, 0.00, -0.00, -1.00, 1705.6, 209.0)">w</text><text xml:space="preserve" font-family="Monaco" font-size="35.0" fill="#FFFFFF" transform="matrix(1.00, 0.00, -0.00, -1.00, 1726.6, 209.0)">i</text><text xml:space="preserve" font-family="Monaco" font-size="35.0" fill="#FFFFFF" transform="matrix(1.00, 0.00, -0.00, -1.00, 1747.6, 209.0)">t</text><text xml:space="preserve" font-family="Monaco" font-size="35.0" fill="#FFFFFF" transform="matrix(1.00, 0.00, -0.00, -1.00, 1768.6, 209.0)">h</text><text xml:space="preserve" font-family="Monaco" font-size="35.0" fill="#FFFFFF" transform="matrix(1.00, 0.00, -0.00, -1.00, 1789.6, 209.0)"> </text><text xml:space="preserve" font-family="Monaco" font-size="35.0" fill="#FFFFFF" transform="matrix(1.00, 0.00, -0.00, -1.00, 1810.6, 209.0)">W</text><text xml:space="preserve" font-family="Monaco" font-size="35.0" fill="#FFFFFF" transform="matrix(1.00, 0.00, -0.00, -1.00, 1831.6, 209.0)">o</text><text xml:space="preserve" font-family="Monaco" font-size="35.0" fill="#FFFFFF" transform="matrix(1.00, 0.00, -0.00, -1.00, 1852.6, 209.0)">r</text><text xml:space="preserve" font-family="Monaco" font-size="35.0" fill="#FFFFFF" transform="matrix(1.00, 0.00, -0.00, -1.00, 1873.6, 209.0)">d</text><text xml:space="preserve" font-family="Monaco" font-size="35.0" fill="#FFFFFF" transform="matrix(1.00, 0.00, -0.00, -1.00, 1894.6, 209.0)"> </text><text xml:space="preserve" font-family="Monaco" font-size="35.0" fill="#FFFFFF" transform="matrix(1.00, 0.00, -0.00, -1.00, 4.0, 162.0)">A</text><text xml:space="preserve" font-family="Monaco" font-size="35.0" fill="#FFFFFF" transform="matrix(1.00, 0.00, -0.00, -1.00, 25.0, 162.0)">'</text><text xml:space="preserve" font-family="Monaco" font-size="35.0" fill="#FFFFFF" transform="matrix(1.00, 0.00, -0.00, -1.00, 46.0, 162.0)">s</text><text xml:space="preserve" font-family="Monaco" font-size="35.0" fill="#FFFFFF" transform="matrix(1.00, 0.00, -0.00, -1.00, 67.0, 162.0)"> </text><text xml:space="preserve" font-family="Monaco" font-size="35.0" fill="#FFFFFF" transform="matrix(1.00, 0.00, -0.00, -1.00, 88.0, 162.0)">-</text><text xml:space="preserve" font-family="Monaco" font-size="35.0" fill="#FFFFFF" transform="matrix(1.00, 0.00, -0.00, -1.00, 109.0, 162.0)">-</text><text xml:space="preserve" font-family="Monaco" font-size="35.0" fill="#FFFFFF" transform="matrix(1.00, 0.00, -0.00, -1.00, 130.0, 162.0)"> </text><text xml:space="preserve" font-family="Monaco" font-size="35.0" fill="#FFFFFF" transform="matrix(1.00, 0.00, -0.00, -1.00, 151.0, 162.0)">c</text><text xml:space="preserve" font-family="Monaco" font-size="35.0" fill="#FFFFFF" transform="matrix(1.00, 0.00, -0.00, -1.00, 172.1, 162.0)">o</text><text xml:space="preserve" font-family="Monaco" font-size="35.0" fill="#FFFFFF" transform="matrix(1.00, 0.00, -0.00, -1.00, 193.1, 162.0)">n</text><text xml:space="preserve" font-family="Monaco" font-size="35.0" fill="#FFFFFF" transform="matrix(1.00, 0.00, -0.00, -1.00, 214.1, 162.0)">t</text><text xml:space="preserve" font-family="Monaco" font-size="35.0" fill="#FFFFFF" transform="matrix(1.00, 0.00, -0.00, -1.00, 235.1, 162.0)">i</text><text xml:space="preserve" font-family="Monaco" font-size="35.0" fill="#FFFFFF" transform="matrix(1.00, 0.00, -0.00, -1.00, 256.1, 162.0)">n</text><text xml:space="preserve" font-family="Monaco" font-size="35.0" fill="#FFFFFF" transform="matrix(1.00, 0.00, -0.00, -1.00, 277.1, 162.0)">u</text><text xml:space="preserve" font-family="Monaco" font-size="35.0" fill="#FFFFFF" transform="matrix(1.00, 0.00, -0.00, -1.00, 298.1, 162.0)">i</text><text xml:space="preserve" font-family="Monaco" font-size="35.0" fill="#FFFFFF" transform="matrix(1.00, 0.00, -0.00, -1.00, 319.1, 162.0)">n</text><text xml:space="preserve" font-family="Monaco" font-size="35.0" fill="#FFFFFF" transform="matrix(1.00, 0.00, -0.00, -1.00, 340.1, 162.0)">g</text><text xml:space="preserve" font-family="Monaco" font-size="35.0" fill="#FFFFFF" transform="matrix(1.00, 0.00, -0.00, -1.00, 361.1, 162.0)"> </text><text xml:space="preserve" font-family="Monaco" font-size="35.0" fill="#FFFFFF" transform="matrix(1.00, 0.00, -0.00, -1.00, 382.1, 162.0)">a</text><text xml:space="preserve" font-family="Monaco" font-size="35.0" fill="#FFFFFF" transform="matrix(1.00, 0.00, -0.00, -1.00, 403.1, 162.0)">n</text><text xml:space="preserve" font-family="Monaco" font-size="35.0" fill="#FFFFFF" transform="matrix(1.00, 0.00, -0.00, -1.00, 424.1, 162.0)">y</text><text xml:space="preserve" font-family="Monaco" font-size="35.0" fill="#FFFFFF" transform="matrix(1.00, 0.00, -0.00, -1.00, 445.1, 162.0)">w</text><text xml:space="preserve" font-family="Monaco" font-size="35.0" fill="#FFFFFF" transform="matrix(1.00, 0.00, -0.00, -1.00, 466.2, 162.0)">a</text><text xml:space="preserve" font-family="Monaco" font-size="35.0" fill="#FFFFFF" transform="matrix(1.00, 0.00, -0.00, -1.00, 487.2, 162.0)">y</text><text xml:space="preserve" font-family="Monaco" font-size="35.0" fill="#FFFFFF" transform="matrix(1.00, 0.00, -0.00, -1.00, 508.2, 162.0)">"</text><text xml:space="preserve" font-family="Monaco" font-size="35.0" fill="#FFFFFF" transform="matrix(1.00, 0.00, -0.00, -1.00, 529.2, 162.0)">)</text><text xml:space="preserve" font-family="Monaco" font-size="35.0" fill="#FFFFFF" transform="matrix(1.00, 0.00, -0.00, -1.00, 550.2, 162.0)">;</text><text xml:space="preserve" font-family="Monaco" font-size="35.0" fill="#FFFFFF" transform="matrix(1.00, 0.00, -0.00, -1.00, 4.0, 115.0)"> </text><text xml:space="preserve" font-family="Monaco" font-size="35.0" fill="#FFFFFF" transform="matrix(1.00, 0.00, -0.00, -1.00, 25.0, 115.0)"> </text><text xml:space="preserve" font-family="Monaco" font-size="35.0" fill="#FFFFFF" transform="matrix(1.00, 0.00, -0.00, -1.00, 46.0, 115.0)"> </text><text xml:space="preserve" font-family="Monaco" font-size="35.0" fill="#FFFFFF" transform="matrix(1.00, 0.00, -0.00, -1.00, 67.0, 115.0)"> </text><text xml:space="preserve" font-family="Monaco" font-size="35.0" fill="#FFFFFF" transform="matrix(1.00, 0.00, -0.00, -1.00, 88.0, 115.0)"> </text><text xml:space="preserve" font-family="Monaco" font-size="35.0" fill="#FFFFFF" transform="matrix(1.00, 0.00, -0.00, -1.00, 109.0, 115.0)"> </text><text xml:space="preserve" font-family="Monaco" font-size="35.0" fill="#FFFFFF" transform="matrix(1.00, 0.00, -0.00, -1.00, 130.0, 115.0)"> </text><text xml:space="preserve" font-family="Monaco" font-size="35.0" fill="#FFFFFF" transform="matrix(1.00, 0.00, -0.00, -1.00, 151.0, 115.0)"> </text><text xml:space="preserve" font-family="Monaco" font-size="35.0" fill="#FFFFFF" transform="matrix(1.00, 0.00, -0.00, -1.00, 172.1, 115.0)"> </text><text xml:space="preserve" font-family="Monaco" font-size="35.0" fill="#FFFFFF" transform="matrix(1.00, 0.00, -0.00, -1.00, 193.1, 115.0)"> </text><text xml:space="preserve" font-family="Monaco" font-size="35.0" fill="#FFFFFF" transform="matrix(1.00, 0.00, -0.00, -1.00, 214.1, 115.0)"> </text><text xml:space="preserve" font-family="Monaco" font-size="35.0" fill="#FFFFFF" transform="matrix(1.00, 0.00, -0.00, -1.00, 235.1, 115.0)"> </text><text xml:space="preserve" font-family="Monaco" font-size="35.0" fill="#FFFFFF" transform="matrix(1.00, 0.00, -0.00, -1.00, 256.1, 115.0)"> </text><text xml:space="preserve" font-family="Monaco" font-size="35.0" fill="#FFFFFF" transform="matrix(1.00, 0.00, -0.00, -1.00, 277.1, 115.0)"> </text><text xml:space="preserve" font-family="Monaco" font-size="35.0" fill="#FFFFFF" transform="matrix(1.00, 0.00, -0.00, -1.00, 298.1, 115.0)"> </text><text xml:space="preserve" font-family="Monaco" font-size="35.0" fill="#FFFFFF" transform="matrix(1.00, 0.00, -0.00, -1.00, 319.1, 115.0)"> </text><text xml:space="preserve" font-family="Monaco" font-size="35.0" fill="#FFFFFF" transform="matrix(1.00, 0.00, -0.00, -1.00, 340.1, 115.0)">}</text></g></svg>