<?xml version="1.0" encoding="UTF-8" standalone="no"?><svg xmlns="http://www.w3.org/2000/svg" xmlns:xlink="http://www.w3.org/1999/xlink" clip-rule="evenodd" stroke-miterlimit="4.00" viewBox="0 0 1920 1080"><desc>SVG generated by Keynote</desc><defs></defs><g transform="matrix(1.00, 0.00, -0.00, -1.00, 0.0, 1080.0)"><path d="M 0.0 1080.0 L 1920.0 1080.0 L 1920.0 0.0 L 0.0 0.0 Z M 0.0 1080.0 " fill="#000000"></path><image xlink:href="../../01886253-BD94-455A-9C97-BB7A4F0B0111/assets/4EF3933426D5CAE3F49BF43517D9CFDC.png" width="675.00" height="100.00" transform="matrix(1.00, 0.00, -0.00, -1.00, 623.0, 1020.0)"></image><text xml:space="preserve" font-family="HelveticaNeue-Light" font-size="100.0" fill="#FEFFFE" transform="matrix(1.00, 0.00, -0.00, -1.00, 624.0, 946.0)">C</text><text xml:space="preserve" font-family="HelveticaNeue-Light" font-size="100.0" fill="#FEFFFE" transform="matrix(1.00, 0.00, -0.00, -1.00, 694.4, 946.0)">h</text><text xml:space="preserve" font-family="HelveticaNeue-Light" font-size="100.0" fill="#FEFFFE" transform="matrix(1.00, 0.00, -0.00, -1.00, 748.1, 946.0)">a</text><text xml:space="preserve" font-family="HelveticaNeue-Light" font-size="100.0" fill="#FEFFFE" transform="matrix(1.00, 0.00, -0.00, -1.00, 800.0, 946.0)">n</text><text xml:space="preserve" font-family="HelveticaNeue-Light" font-size="100.0" fill="#FEFFFE" transform="matrix(1.00, 0.00, -0.00, -1.00, 853.7, 946.0)">n</text><text xml:space="preserve" font-family="HelveticaNeue-Light" font-size="100.0" fill="#FEFFFE" transform="matrix(1.00, 0.00, -0.00, -1.00, 907.4, 946.0)">e</text><text xml:space="preserve" font-family="HelveticaNeue-Light" font-size="100.0" fill="#FEFFFE" transform="matrix(1.00, 0.00, -0.00, -1.00, 959.3, 946.0)">l</text><text xml:space="preserve" font-family="HelveticaNeue-Light" font-size="100.0" fill="#FEFFFE" transform="matrix(1.00, 0.00, -0.00, -1.00, 977.8, 946.0)"> </text><text xml:space="preserve" font-family="HelveticaNeue-Light" font-size="100.0" fill="#FEFFFE" transform="matrix(1.00, 0.00, -0.00, -1.00, 1005.6, 946.0)">L</text><text xml:space="preserve" font-family="HelveticaNeue-Light" font-size="100.0" fill="#FEFFFE" transform="matrix(1.00, 0.00, -0.00, -1.00, 1059.3, 946.0)">a</text><text xml:space="preserve" font-family="HelveticaNeue-Light" font-size="100.0" fill="#FEFFFE" transform="matrix(1.00, 0.00, -0.00, -1.00, 1111.2, 946.0)">y</text><text xml:space="preserve" font-family="HelveticaNeue-Light" font-size="100.0" fill="#FEFFFE" transform="matrix(1.00, 0.00, -0.00, -1.00, 1157.5, 946.0)">o</text><text xml:space="preserve" font-family="HelveticaNeue-Light" font-size="100.0" fill="#FEFFFE" transform="matrix(1.00, 0.00, -0.00, -1.00, 1213.1, 946.0)">u</text><text xml:space="preserve" font-family="HelveticaNeue-Light" font-size="100.0" fill="#FEFFFE" transform="matrix(1.00, 0.00, -0.00, -1.00, 1266.8, 946.0)">t</text><g><clipPath id="clip-1011"><path d="M 115.8 742.2 L 1804.2 742.2 L 1804.2 169.1 L 115.8 169.1 Z M 115.8 742.2 "></path></clipPath><g clip-path="url(#clip-1011)"><path d="M 116.0 742.0 L 453.6 742.0 L 453.6 551.1 L 116.0 551.1 Z M 116.0 742.0 " fill="#000104" fill-opacity="0.36"></path><path d="M 453.6 742.0 L 791.2 742.0 L 791.2 551.1 L 453.6 551.1 Z M 453.6 742.0 " fill="#000104" fill-opacity="0.36"></path><path d="M 791.2 742.0 L 1128.8 742.0 L 1128.8 551.1 L 791.2 551.1 Z M 791.2 742.0 " fill="#000104" fill-opacity="0.36"></path><path d="M 1128.8 742.0 L 1466.4 742.0 L 1466.4 551.1 L 1128.8 551.1 Z M 1128.8 742.0 " fill="#000104" fill-opacity="0.36"></path><path d="M 1466.4 742.0 L 1804.0 742.0 L 1804.0 551.1 L 1466.4 551.1 Z M 1466.4 742.0 " fill="#000104" fill-opacity="0.36"></path><path d="M 116.0 551.1 L 453.6 551.1 L 453.6 360.2 L 116.0 360.2 Z M 116.0 551.1 " fill="#676163" fill-opacity="0.36"></path><path d="M 453.6 551.1 L 791.2 551.1 L 791.2 360.2 L 453.6 360.2 Z M 453.6 551.1 " fill="#676163" fill-opacity="0.36"></path><path d="M 791.2 551.1 L 1128.8 551.1 L 1128.8 360.2 L 791.2 360.2 Z M 791.2 551.1 " fill="#676163" fill-opacity="0.36"></path><path d="M 1128.8 551.1 L 1466.4 551.1 L 1466.4 360.2 L 1128.8 360.2 Z M 1128.8 551.1 " fill="#676163" fill-opacity="0.36"></path><path d="M 1466.4 551.1 L 1804.0 551.1 L 1804.0 360.2 L 1466.4 360.2 Z M 1466.4 551.1 " fill="#676163" fill-opacity="0.36"></path><path d="M 116.0 360.2 L 453.6 360.2 L 453.6 169.3 L 116.0 169.3 Z M 116.0 360.2 " fill="#000104" fill-opacity="0.36"></path><path d="M 453.6 360.2 L 791.2 360.2 L 791.2 169.3 L 453.6 169.3 Z M 453.6 360.2 " fill="#000104" fill-opacity="0.36"></path><path d="M 791.2 360.2 L 1128.8 360.2 L 1128.8 169.3 L 791.2 169.3 Z M 791.2 360.2 " fill="#000104" fill-opacity="0.36"></path><path d="M 1128.8 360.2 L 1466.4 360.2 L 1466.4 169.3 L 1128.8 169.3 Z M 1128.8 360.2 " fill="#00B607" fill-opacity="0.36"></path><path d="M 1466.4 360.2 L 1804.0 360.2 L 1804.0 169.3 L 1466.4 169.3 Z M 1466.4 360.2 " fill="#000104" fill-opacity="0.36"></path></g></g><image xlink:href="../../01886253-BD94-455A-9C97-BB7A4F0B0111/assets/1FC13835829520676E74C6FFE71E84AD.png" width="178.00" height="39.00" transform="matrix(1.00, 0.00, -0.00, -1.00, 196.0, 662.0)"></image><g><clipPath id="clip-1012"><path d="M 115.8 742.2 L 1804.2 742.2 L 1804.2 169.1 L 115.8 169.1 Z M 115.8 742.2 "></path></clipPath><g clip-path="url(#clip-1012)"><g><clipPath id="clip-1013"><path d="M 116.2 552.1 L 452.6 552.1 L 452.6 741.8 L 116.2 741.8 Z M 116.2 552.1 "></path></clipPath><g clip-path="url(#clip-1013)"><text xml:space="preserve" font-family="Menlo-Bold" font-weight="bold" font-size="42.0" fill="#FEFFFE" transform="matrix(1.00, 0.00, -0.00, -1.00, 196.0, 632.0)">C</text><text xml:space="preserve" font-family="Menlo-Bold" font-weight="bold" font-size="42.0" fill="#FEFFFE" transform="matrix(1.00, 0.00, -0.00, -1.00, 221.3, 632.0)">h</text><text xml:space="preserve" font-family="Menlo-Bold" font-weight="bold" font-size="42.0" fill="#FEFFFE" transform="matrix(1.00, 0.00, -0.00, -1.00, 246.6, 632.0)">a</text><text xml:space="preserve" font-family="Menlo-Bold" font-weight="bold" font-size="42.0" fill="#FEFFFE" transform="matrix(1.00, 0.00, -0.00, -1.00, 271.9, 632.0)">n</text><text xml:space="preserve" font-family="Menlo-Bold" font-weight="bold" font-size="42.0" fill="#FEFFFE" transform="matrix(1.00, 0.00, -0.00, -1.00, 297.2, 632.0)">n</text><text xml:space="preserve" font-family="Menlo-Bold" font-weight="bold" font-size="42.0" fill="#FEFFFE" transform="matrix(1.00, 0.00, -0.00, -1.00, 322.5, 632.0)">e</text><text xml:space="preserve" font-family="Menlo-Bold" font-weight="bold" font-size="42.0" fill="#FEFFFE" transform="matrix(1.00, 0.00, -0.00, -1.00, 347.7, 632.0)">l</text></g></g></g></g><image xlink:href="../../01886253-BD94-455A-9C97-BB7A4F0B0111/assets/7CC2C927ED02E859C10ACFD83CA4056B.png" width="78.00" height="39.00" transform="matrix(1.00, 0.00, -0.00, -1.00, 583.0, 662.0)"></image><g><clipPath id="clip-1014"><path d="M 115.8 742.2 L 1804.2 742.2 L 1804.2 169.1 L 115.8 169.1 Z M 115.8 742.2 "></path></clipPath><g clip-path="url(#clip-1014)"><g><clipPath id="clip-1015"><path d="M 454.6 552.1 L 790.2 552.1 L 790.2 741.8 L 454.6 741.8 Z M 454.6 552.1 "></path></clipPath><g clip-path="url(#clip-1015)"><text xml:space="preserve" font-family="Menlo-Bold" font-weight="bold" font-size="42.0" fill="#FEFFFE" transform="matrix(1.00, 0.00, -0.00, -1.00, 584.0, 632.0)">3</text><text xml:space="preserve" font-family="Menlo-Bold" font-weight="bold" font-size="42.0" fill="#FEFFFE" transform="matrix(1.00, 0.00, -0.00, -1.00, 609.3, 632.0)">5</text><text xml:space="preserve" font-family="Menlo-Bold" font-weight="bold" font-size="42.0" fill="#FEFFFE" transform="matrix(1.00, 0.00, -0.00, -1.00, 634.6, 632.0)">3</text></g></g></g></g><image xlink:href="../../01886253-BD94-455A-9C97-BB7A4F0B0111/assets/69C54DFBFBCB3956BCBE35820E7B57EF.png" width="78.00" height="39.00" transform="matrix(1.00, 0.00, -0.00, -1.00, 921.0, 662.0)"></image><g><clipPath id="clip-1016"><path d="M 115.8 742.2 L 1804.2 742.2 L 1804.2 169.1 L 115.8 169.1 Z M 115.8 742.2 "></path></clipPath><g clip-path="url(#clip-1016)"><g><clipPath id="clip-1017"><path d="M 792.2 552.1 L 1127.8 552.1 L 1127.8 741.8 L 792.2 741.8 Z M 792.2 552.1 "></path></clipPath><g clip-path="url(#clip-1017)"><text xml:space="preserve" font-family="Menlo-Bold" font-weight="bold" font-size="42.0" fill="#FEFFFE" transform="matrix(1.00, 0.00, -0.00, -1.00, 922.0, 632.0)">3</text><text xml:space="preserve" font-family="Menlo-Bold" font-weight="bold" font-size="42.0" fill="#FEFFFE" transform="matrix(1.00, 0.00, -0.00, -1.00, 947.3, 632.0)">5</text><text xml:space="preserve" font-family="Menlo-Bold" font-weight="bold" font-size="42.0" fill="#FEFFFE" transform="matrix(1.00, 0.00, -0.00, -1.00, 972.6, 632.0)">4</text></g></g></g></g><image xlink:href="../../01886253-BD94-455A-9C97-BB7A4F0B0111/assets/41DF8B1B03BA8A6A5087119C7AC2D434.png" width="78.00" height="39.00" transform="matrix(1.00, 0.00, -0.00, -1.00, 1259.0, 662.0)"></image><g><clipPath id="clip-1018"><path d="M 115.8 742.2 L 1804.2 742.2 L 1804.2 169.1 L 115.8 169.1 Z M 115.8 742.2 "></path></clipPath><g clip-path="url(#clip-1018)"><g><clipPath id="clip-1019"><path d="M 1129.8 552.1 L 1465.4 552.1 L 1465.4 741.8 L 1129.8 741.8 Z M 1129.8 552.1 "></path></clipPath><g clip-path="url(#clip-1019)"><text xml:space="preserve" font-family="Menlo-Bold" font-weight="bold" font-size="42.0" fill="#FEFFFE" transform="matrix(1.00, 0.00, -0.00, -1.00, 1260.0, 632.0)">3</text><text xml:space="preserve" font-family="Menlo-Bold" font-weight="bold" font-size="42.0" fill="#FEFFFE" transform="matrix(1.00, 0.00, -0.00, -1.00, 1285.3, 632.0)">5</text><text xml:space="preserve" font-family="Menlo-Bold" font-weight="bold" font-size="42.0" fill="#FEFFFE" transform="matrix(1.00, 0.00, -0.00, -1.00, 1310.6, 632.0)">5</text></g></g></g></g><image xlink:href="../../01886253-BD94-455A-9C97-BB7A4F0B0111/assets/4493CAB405E02AA0B84224F80067D4E0.png" width="78.00" height="39.00" transform="matrix(1.00, 0.00, -0.00, -1.00, 1597.0, 662.0)"></image><g><clipPath id="clip-1020"><path d="M 115.8 742.2 L 1804.2 742.2 L 1804.2 169.1 L 115.8 169.1 Z M 115.8 742.2 "></path></clipPath><g clip-path="url(#clip-1020)"><g><clipPath id="clip-1021"><path d="M 1467.4 552.1 L 1803.8 552.1 L 1803.8 741.8 L 1467.4 741.8 Z M 1467.4 552.1 "></path></clipPath><g clip-path="url(#clip-1021)"><text xml:space="preserve" font-family="Menlo-Bold" font-weight="bold" font-size="42.0" fill="#FEFFFE" transform="matrix(1.00, 0.00, -0.00, -1.00, 1598.0, 632.0)">3</text><text xml:space="preserve" font-family="Menlo-Bold" font-weight="bold" font-size="42.0" fill="#FEFFFE" transform="matrix(1.00, 0.00, -0.00, -1.00, 1623.3, 632.0)">5</text><text xml:space="preserve" font-family="Menlo-Bold" font-weight="bold" font-size="42.0" fill="#FEFFFE" transform="matrix(1.00, 0.00, -0.00, -1.00, 1648.6, 632.0)">6</text></g></g></g></g><image xlink:href="../../01886253-BD94-455A-9C97-BB7A4F0B0111/assets/CD88649A87F91F4DEAC6F325F41636D5.png" width="249.00" height="47.00" transform="matrix(1.00, 0.00, -0.00, -1.00, 158.0, 471.0)"></image><g><clipPath id="clip-1022"><path d="M 115.8 742.2 L 1804.2 742.2 L 1804.2 169.1 L 115.8 169.1 Z M 115.8 742.2 "></path></clipPath><g clip-path="url(#clip-1022)"><g><clipPath id="clip-1023"><path d="M 116.2 361.2 L 452.6 361.2 L 452.6 550.1 L 116.2 550.1 Z M 116.2 361.2 "></path></clipPath><g clip-path="url(#clip-1023)"><text xml:space="preserve" font-family="Menlo-Bold" font-weight="bold" font-size="42.0" fill="#FEFFFE" transform="matrix(1.00, 0.00, -0.00, -1.00, 158.0, 441.0)">F</text><text xml:space="preserve" font-family="Menlo-Bold" font-weight="bold" font-size="42.0" fill="#FEFFFE" transform="matrix(1.00, 0.00, -0.00, -1.00, 183.3, 441.0)">r</text><text xml:space="preserve" font-family="Menlo-Bold" font-weight="bold" font-size="42.0" fill="#FEFFFE" transform="matrix(1.00, 0.00, -0.00, -1.00, 208.6, 441.0)">e</text><text xml:space="preserve" font-family="Menlo-Bold" font-weight="bold" font-size="42.0" fill="#FEFFFE" transform="matrix(1.00, 0.00, -0.00, -1.00, 233.9, 441.0)">q</text><text xml:space="preserve" font-family="Menlo-Bold" font-weight="bold" font-size="42.0" fill="#FEFFFE" transform="matrix(1.00, 0.00, -0.00, -1.00, 259.2, 441.0)"> </text><text xml:space="preserve" font-family="Menlo-Bold" font-weight="bold" font-size="42.0" fill="#FEFFFE" transform="matrix(1.00, 0.00, -0.00, -1.00, 284.5, 441.0)">(</text><text xml:space="preserve" font-family="Menlo-Bold" font-weight="bold" font-size="42.0" fill="#FEFFFE" transform="matrix(1.00, 0.00, -0.00, -1.00, 309.7, 441.0)">M</text><text xml:space="preserve" font-family="Menlo-Bold" font-weight="bold" font-size="42.0" fill="#FEFFFE" transform="matrix(1.00, 0.00, -0.00, -1.00, 335.0, 441.0)">H</text><text xml:space="preserve" font-family="Menlo-Bold" font-weight="bold" font-size="42.0" fill="#FEFFFE" transform="matrix(1.00, 0.00, -0.00, -1.00, 360.3, 441.0)">z</text><text xml:space="preserve" font-family="Menlo-Bold" font-weight="bold" font-size="42.0" fill="#FEFFFE" transform="matrix(1.00, 0.00, -0.00, -1.00, 385.6, 441.0)">)</text></g></g></g></g><image xlink:href="../../01886253-BD94-455A-9C97-BB7A4F0B0111/assets/82FC55F9A59C9A268BE922B60DF4B68B.png" width="154.00" height="39.00" transform="matrix(1.00, 0.00, -0.00, -1.00, 546.0, 495.0)"></image><g><clipPath id="clip-1024"><path d="M 115.8 742.2 L 1804.2 742.2 L 1804.2 169.1 L 115.8 169.1 Z M 115.8 742.2 "></path></clipPath><g clip-path="url(#clip-1024)"><g><clipPath id="clip-1025"><path d="M 454.6 361.2 L 790.2 361.2 L 790.2 550.1 L 454.6 550.1 Z M 454.6 361.2 "></path></clipPath><g clip-path="url(#clip-1025)"><text xml:space="preserve" font-family="Menlo-Bold" font-weight="bold" font-size="42.0" fill="#FEFFFE" transform="matrix(1.00, 0.00, -0.00, -1.00, 547.0, 465.0)">8</text><text xml:space="preserve" font-family="Menlo-Bold" font-weight="bold" font-size="42.0" fill="#FEFFFE" transform="matrix(1.00, 0.00, -0.00, -1.00, 572.3, 465.0)">8</text><text xml:space="preserve" font-family="Menlo-Bold" font-weight="bold" font-size="42.0" fill="#FEFFFE" transform="matrix(1.00, 0.00, -0.00, -1.00, 597.6, 465.0)">0</text><text xml:space="preserve" font-family="Menlo-Bold" font-weight="bold" font-size="42.0" fill="#FEFFFE" transform="matrix(1.00, 0.00, -0.00, -1.00, 622.9, 465.0)">.</text><text xml:space="preserve" font-family="Menlo-Bold" font-weight="bold" font-size="42.0" fill="#FEFFFE" transform="matrix(1.00, 0.00, -0.00, -1.00, 648.2, 465.0)">5</text><text xml:space="preserve" font-family="Menlo-Bold" font-weight="bold" font-size="42.0" fill="#FEFFFE" transform="matrix(1.00, 0.00, -0.00, -1.00, 673.5, 465.0)">9</text><text xml:space="preserve" font-family="Menlo-Bold" font-weight="bold" font-size="42.0" fill="#FEFFFE" transform="matrix(1.00, 0.00, -0.00, -1.00, 698.7, 465.0)"> </text></g></g></g></g><image xlink:href="../../01886253-BD94-455A-9C97-BB7A4F0B0111/assets/CA59350B9957D803CF24EC137F165653.png" width="154.00" height="39.00" transform="matrix(1.00, 0.00, -0.00, -1.00, 546.0, 446.0)"></image><g><clipPath id="clip-1026"><path d="M 115.8 742.2 L 1804.2 742.2 L 1804.2 169.1 L 115.8 169.1 Z M 115.8 742.2 "></path></clipPath><g clip-path="url(#clip-1026)"><g><clipPath id="clip-1027"><path d="M 454.6 361.2 L 790.2 361.2 L 790.2 550.1 L 454.6 550.1 Z M 454.6 361.2 "></path></clipPath><g clip-path="url(#clip-1027)"><text xml:space="preserve" font-family="Menlo-Bold" font-weight="bold" font-size="42.0" fill="#FEFFFE" transform="matrix(1.00, 0.00, -0.00, -1.00, 547.0, 416.0)">8</text><text xml:space="preserve" font-family="Menlo-Bold" font-weight="bold" font-size="42.0" fill="#FEFFFE" transform="matrix(1.00, 0.00, -0.00, -1.00, 572.3, 416.0)">3</text><text xml:space="preserve" font-family="Menlo-Bold" font-weight="bold" font-size="42.0" fill="#FEFFFE" transform="matrix(1.00, 0.00, -0.00, -1.00, 597.6, 416.0)">5</text><text xml:space="preserve" font-family="Menlo-Bold" font-weight="bold" font-size="42.0" fill="#FEFFFE" transform="matrix(1.00, 0.00, -0.00, -1.00, 622.9, 416.0)">.</text><text xml:space="preserve" font-family="Menlo-Bold" font-weight="bold" font-size="42.0" fill="#FEFFFE" transform="matrix(1.00, 0.00, -0.00, -1.00, 648.2, 416.0)">5</text><text xml:space="preserve" font-family="Menlo-Bold" font-weight="bold" font-size="42.0" fill="#FEFFFE" transform="matrix(1.00, 0.00, -0.00, -1.00, 673.5, 416.0)">9</text></g></g></g></g><image xlink:href="../../01886253-BD94-455A-9C97-BB7A4F0B0111/assets/801853BD3D6C54F330E7D4D0B92BDFEC.png" width="153.00" height="39.00" transform="matrix(1.00, 0.00, -0.00, -1.00, 883.0, 495.0)"></image><g><clipPath id="clip-1028"><path d="M 115.8 742.2 L 1804.2 742.2 L 1804.2 169.1 L 115.8 169.1 Z M 115.8 742.2 "></path></clipPath><g clip-path="url(#clip-1028)"><g><clipPath id="clip-1029"><path d="M 792.2 361.2 L 1127.8 361.2 L 1127.8 550.1 L 792.2 550.1 Z M 792.2 361.2 "></path></clipPath><g clip-path="url(#clip-1029)"><text xml:space="preserve" font-family="Menlo-Bold" font-weight="bold" font-size="42.0" fill="#FEFFFE" transform="matrix(1.00, 0.00, -0.00, -1.00, 884.0, 465.0)">8</text><text xml:space="preserve" font-family="Menlo-Bold" font-weight="bold" font-size="42.0" fill="#FEFFFE" transform="matrix(1.00, 0.00, -0.00, -1.00, 909.3, 465.0)">8</text><text xml:space="preserve" font-family="Menlo-Bold" font-weight="bold" font-size="42.0" fill="#FEFFFE" transform="matrix(1.00, 0.00, -0.00, -1.00, 934.6, 465.0)">0</text><text xml:space="preserve" font-family="Menlo-Bold" font-weight="bold" font-size="42.0" fill="#FEFFFE" transform="matrix(1.00, 0.00, -0.00, -1.00, 959.9, 465.0)">.</text><text xml:space="preserve" font-family="Menlo-Bold" font-weight="bold" font-size="42.0" fill="#FEFFFE" transform="matrix(1.00, 0.00, -0.00, -1.00, 985.2, 465.0)">6</text><text xml:space="preserve" font-family="Menlo-Bold" font-weight="bold" font-size="42.0" fill="#FEFFFE" transform="matrix(1.00, 0.00, -0.00, -1.00, 1010.5, 465.0)">2</text><text xml:space="preserve" font-family="Menlo-Bold" font-weight="bold" font-size="42.0" fill="#FEFFFE" transform="matrix(1.00, 0.00, -0.00, -1.00, 1035.7, 465.0)"> </text></g></g></g></g><image xlink:href="../../01886253-BD94-455A-9C97-BB7A4F0B0111/assets/76DF8FE4FD059A4E35AA996E43890BD0.png" width="153.00" height="39.00" transform="matrix(1.00, 0.00, -0.00, -1.00, 883.0, 446.0)"></image><g><clipPath id="clip-1030"><path d="M 115.8 742.2 L 1804.2 742.2 L 1804.2 169.1 L 115.8 169.1 Z M 115.8 742.2 "></path></clipPath><g clip-path="url(#clip-1030)"><g><clipPath id="clip-1031"><path d="M 792.2 361.2 L 1127.8 361.2 L 1127.8 550.1 L 792.2 550.1 Z M 792.2 361.2 "></path></clipPath><g clip-path="url(#clip-1031)"><text xml:space="preserve" font-family="Menlo-Bold" font-weight="bold" font-size="42.0" fill="#FEFFFE" transform="matrix(1.00, 0.00, -0.00, -1.00, 884.0, 416.0)">8</text><text xml:space="preserve" font-family="Menlo-Bold" font-weight="bold" font-size="42.0" fill="#FEFFFE" transform="matrix(1.00, 0.00, -0.00, -1.00, 909.3, 416.0)">3</text><text xml:space="preserve" font-family="Menlo-Bold" font-weight="bold" font-size="42.0" fill="#FEFFFE" transform="matrix(1.00, 0.00, -0.00, -1.00, 934.6, 416.0)">5</text><text xml:space="preserve" font-family="Menlo-Bold" font-weight="bold" font-size="42.0" fill="#FEFFFE" transform="matrix(1.00, 0.00, -0.00, -1.00, 959.9, 416.0)">.</text><text xml:space="preserve" font-family="Menlo-Bold" font-weight="bold" font-size="42.0" fill="#FEFFFE" transform="matrix(1.00, 0.00, -0.00, -1.00, 985.2, 416.0)">6</text><text xml:space="preserve" font-family="Menlo-Bold" font-weight="bold" font-size="42.0" fill="#FEFFFE" transform="matrix(1.00, 0.00, -0.00, -1.00, 1010.5, 416.0)">2</text></g></g></g></g><image xlink:href="../../01886253-BD94-455A-9C97-BB7A4F0B0111/assets/40ADDF76061DE6A5DD5E2FF9EFFF4C6A.png" width="153.00" height="39.00" transform="matrix(1.00, 0.00, -0.00, -1.00, 1221.0, 495.0)"></image><g><clipPath id="clip-1032"><path d="M 115.8 742.2 L 1804.2 742.2 L 1804.2 169.1 L 115.8 169.1 Z M 115.8 742.2 "></path></clipPath><g clip-path="url(#clip-1032)"><g><clipPath id="clip-1033"><path d="M 1129.8 361.2 L 1465.4 361.2 L 1465.4 550.1 L 1129.8 550.1 Z M 1129.8 361.2 "></path></clipPath><g clip-path="url(#clip-1033)"><text xml:space="preserve" font-family="Menlo-Bold" font-weight="bold" font-size="42.0" fill="#FEFFFE" transform="matrix(1.00, 0.00, -0.00, -1.00, 1222.0, 465.0)">8</text><text xml:space="preserve" font-family="Menlo-Bold" font-weight="bold" font-size="42.0" fill="#FEFFFE" transform="matrix(1.00, 0.00, -0.00, -1.00, 1247.3, 465.0)">8</text><text xml:space="preserve" font-family="Menlo-Bold" font-weight="bold" font-size="42.0" fill="#FEFFFE" transform="matrix(1.00, 0.00, -0.00, -1.00, 1272.6, 465.0)">0</text><text xml:space="preserve" font-family="Menlo-Bold" font-weight="bold" font-size="42.0" fill="#FEFFFE" transform="matrix(1.00, 0.00, -0.00, -1.00, 1297.9, 465.0)">.</text><text xml:space="preserve" font-family="Menlo-Bold" font-weight="bold" font-size="42.0" fill="#FEFFFE" transform="matrix(1.00, 0.00, -0.00, -1.00, 1323.2, 465.0)">6</text><text xml:space="preserve" font-family="Menlo-Bold" font-weight="bold" font-size="42.0" fill="#FEFFFE" transform="matrix(1.00, 0.00, -0.00, -1.00, 1348.5, 465.0)">5</text><text xml:space="preserve" font-family="Menlo-Bold" font-weight="bold" font-size="42.0" fill="#FEFFFE" transform="matrix(1.00, 0.00, -0.00, -1.00, 1373.7, 465.0)"> </text></g></g></g></g><image xlink:href="../../01886253-BD94-455A-9C97-BB7A4F0B0111/assets/1DC4065A37D5A78DC0FF4C729A5CE521.png" width="153.00" height="39.00" transform="matrix(1.00, 0.00, -0.00, -1.00, 1221.0, 446.0)"></image><g><clipPath id="clip-1034"><path d="M 115.8 742.2 L 1804.2 742.2 L 1804.2 169.1 L 115.8 169.1 Z M 115.8 742.2 "></path></clipPath><g clip-path="url(#clip-1034)"><g><clipPath id="clip-1035"><path d="M 1129.8 361.2 L 1465.4 361.2 L 1465.4 550.1 L 1129.8 550.1 Z M 1129.8 361.2 "></path></clipPath><g clip-path="url(#clip-1035)"><text xml:space="preserve" font-family="Menlo-Bold" font-weight="bold" font-size="42.0" fill="#FEFFFE" transform="matrix(1.00, 0.00, -0.00, -1.00, 1222.0, 416.0)">8</text><text xml:space="preserve" font-family="Menlo-Bold" font-weight="bold" font-size="42.0" fill="#FEFFFE" transform="matrix(1.00, 0.00, -0.00, -1.00, 1247.3, 416.0)">3</text><text xml:space="preserve" font-family="Menlo-Bold" font-weight="bold" font-size="42.0" fill="#FEFFFE" transform="matrix(1.00, 0.00, -0.00, -1.00, 1272.6, 416.0)">5</text><text xml:space="preserve" font-family="Menlo-Bold" font-weight="bold" font-size="42.0" fill="#FEFFFE" transform="matrix(1.00, 0.00, -0.00, -1.00, 1297.9, 416.0)">.</text><text xml:space="preserve" font-family="Menlo-Bold" font-weight="bold" font-size="42.0" fill="#FEFFFE" transform="matrix(1.00, 0.00, -0.00, -1.00, 1323.2, 416.0)">6</text><text xml:space="preserve" font-family="Menlo-Bold" font-weight="bold" font-size="42.0" fill="#FEFFFE" transform="matrix(1.00, 0.00, -0.00, -1.00, 1348.5, 416.0)">5</text></g></g></g></g><image xlink:href="../../01886253-BD94-455A-9C97-BB7A4F0B0111/assets/19AA43F0EDC8CD63A236B87F3FD342AF.png" width="154.00" height="39.00" transform="matrix(1.00, 0.00, -0.00, -1.00, 1559.0, 495.0)"></image><g><clipPath id="clip-1036"><path d="M 115.8 742.2 L 1804.2 742.2 L 1804.2 169.1 L 115.8 169.1 Z M 115.8 742.2 "></path></clipPath><g clip-path="url(#clip-1036)"><g><clipPath id="clip-1037"><path d="M 1467.4 361.2 L 1803.8 361.2 L 1803.8 550.1 L 1467.4 550.1 Z M 1467.4 361.2 "></path></clipPath><g clip-path="url(#clip-1037)"><text xml:space="preserve" font-family="Menlo-Bold" font-weight="bold" font-size="42.0" fill="#FEFFFE" transform="matrix(1.00, 0.00, -0.00, -1.00, 1560.0, 465.0)">8</text><text xml:space="preserve" font-family="Menlo-Bold" font-weight="bold" font-size="42.0" fill="#FEFFFE" transform="matrix(1.00, 0.00, -0.00, -1.00, 1585.3, 465.0)">8</text><text xml:space="preserve" font-family="Menlo-Bold" font-weight="bold" font-size="42.0" fill="#FEFFFE" transform="matrix(1.00, 0.00, -0.00, -1.00, 1610.6, 465.0)">0</text><text xml:space="preserve" font-family="Menlo-Bold" font-weight="bold" font-size="42.0" fill="#FEFFFE" transform="matrix(1.00, 0.00, -0.00, -1.00, 1635.9, 465.0)">.</text><text xml:space="preserve" font-family="Menlo-Bold" font-weight="bold" font-size="42.0" fill="#FEFFFE" transform="matrix(1.00, 0.00, -0.00, -1.00, 1661.2, 465.0)">6</text><text xml:space="preserve" font-family="Menlo-Bold" font-weight="bold" font-size="42.0" fill="#FEFFFE" transform="matrix(1.00, 0.00, -0.00, -1.00, 1686.5, 465.0)">8</text><text xml:space="preserve" font-family="Menlo-Bold" font-weight="bold" font-size="42.0" fill="#FEFFFE" transform="matrix(1.00, 0.00, -0.00, -1.00, 1711.7, 465.0)"> </text></g></g></g></g><image xlink:href="../../01886253-BD94-455A-9C97-BB7A4F0B0111/assets/576A591B49B44714985C9E393D977961.png" width="154.00" height="39.00" transform="matrix(1.00, 0.00, -0.00, -1.00, 1559.0, 446.0)"></image><g><clipPath id="clip-1038"><path d="M 115.8 742.2 L 1804.2 742.2 L 1804.2 169.1 L 115.8 169.1 Z M 115.8 742.2 "></path></clipPath><g clip-path="url(#clip-1038)"><g><clipPath id="clip-1039"><path d="M 1467.4 361.2 L 1803.8 361.2 L 1803.8 550.1 L 1467.4 550.1 Z M 1467.4 361.2 "></path></clipPath><g clip-path="url(#clip-1039)"><text xml:space="preserve" font-family="Menlo-Bold" font-weight="bold" font-size="42.0" fill="#FEFFFE" transform="matrix(1.00, 0.00, -0.00, -1.00, 1560.0, 416.0)">8</text><text xml:space="preserve" font-family="Menlo-Bold" font-weight="bold" font-size="42.0" fill="#FEFFFE" transform="matrix(1.00, 0.00, -0.00, -1.00, 1585.3, 416.0)">3</text><text xml:space="preserve" font-family="Menlo-Bold" font-weight="bold" font-size="42.0" fill="#FEFFFE" transform="matrix(1.00, 0.00, -0.00, -1.00, 1610.6, 416.0)">5</text><text xml:space="preserve" font-family="Menlo-Bold" font-weight="bold" font-size="42.0" fill="#FEFFFE" transform="matrix(1.00, 0.00, -0.00, -1.00, 1635.9, 416.0)">.</text><text xml:space="preserve" font-family="Menlo-Bold" font-weight="bold" font-size="42.0" fill="#FEFFFE" transform="matrix(1.00, 0.00, -0.00, -1.00, 1661.2, 416.0)">6</text><text xml:space="preserve" font-family="Menlo-Bold" font-weight="bold" font-size="42.0" fill="#FEFFFE" transform="matrix(1.00, 0.00, -0.00, -1.00, 1686.5, 416.0)">8</text></g></g></g></g><image xlink:href="../../01886253-BD94-455A-9C97-BB7A4F0B0111/assets/B929B7EA1660D65BE3558F6EECC1C309.png" width="202.00" height="42.00" transform="matrix(1.00, 0.00, -0.00, -1.00, 183.0, 282.0)"></image><g><clipPath id="clip-1040"><path d="M 115.8 742.2 L 1804.2 742.2 L 1804.2 169.1 L 115.8 169.1 Z M 115.8 742.2 "></path></clipPath><g clip-path="url(#clip-1040)"><g><clipPath id="clip-1041"><path d="M 116.2 169.6 L 452.6 169.6 L 452.6 359.2 L 116.2 359.2 Z M 116.2 169.6 "></path></clipPath><g clip-path="url(#clip-1041)"><text xml:space="preserve" font-family="Menlo-Bold" font-weight="bold" font-size="42.0" fill="#FEFFFE" transform="matrix(1.00, 0.00, -0.00, -1.00, 183.0, 249.0)">F</text><text xml:space="preserve" font-family="Menlo-Bold" font-weight="bold" font-size="42.0" fill="#FEFFFE" transform="matrix(1.00, 0.00, -0.00, -1.00, 208.3, 249.0)">u</text><text xml:space="preserve" font-family="Menlo-Bold" font-weight="bold" font-size="42.0" fill="#FEFFFE" transform="matrix(1.00, 0.00, -0.00, -1.00, 233.6, 249.0)">n</text><text xml:space="preserve" font-family="Menlo-Bold" font-weight="bold" font-size="42.0" fill="#FEFFFE" transform="matrix(1.00, 0.00, -0.00, -1.00, 258.9, 249.0)">c</text><text xml:space="preserve" font-family="Menlo-Bold" font-weight="bold" font-size="42.0" fill="#FEFFFE" transform="matrix(1.00, 0.00, -0.00, -1.00, 284.2, 249.0)">t</text><text xml:space="preserve" font-family="Menlo-Bold" font-weight="bold" font-size="42.0" fill="#FEFFFE" transform="matrix(1.00, 0.00, -0.00, -1.00, 309.5, 249.0)">i</text><text xml:space="preserve" font-family="Menlo-Bold" font-weight="bold" font-size="42.0" fill="#FEFFFE" transform="matrix(1.00, 0.00, -0.00, -1.00, 334.7, 249.0)">o</text><text xml:space="preserve" font-family="Menlo-Bold" font-weight="bold" font-size="42.0" fill="#FEFFFE" transform="matrix(1.00, 0.00, -0.00, -1.00, 360.0, 249.0)">n</text></g></g></g></g><image xlink:href="../../01886253-BD94-455A-9C97-BB7A4F0B0111/assets/06C4433669B42EC396F2FBCC6C149398.png" width="102.00" height="39.00" transform="matrix(1.00, 0.00, -0.00, -1.00, 572.0, 304.0)"></image><g><clipPath id="clip-1042"><path d="M 115.8 742.2 L 1804.2 742.2 L 1804.2 169.1 L 115.8 169.1 Z M 115.8 742.2 "></path></clipPath><g clip-path="url(#clip-1042)"><g><clipPath id="clip-1043"><path d="M 454.6 169.6 L 790.2 169.6 L 790.2 359.2 L 454.6 359.2 Z M 454.6 169.6 "></path></clipPath><g clip-path="url(#clip-1043)"><text xml:space="preserve" font-family="Menlo-Bold" font-weight="bold" font-size="42.0" fill="#FEFFFE" transform="matrix(1.00, 0.00, -0.00, -1.00, 572.0, 274.0)">F</text><text xml:space="preserve" font-family="Menlo-Bold" font-weight="bold" font-size="42.0" fill="#FEFFFE" transform="matrix(1.00, 0.00, -0.00, -1.00, 597.3, 274.0)">O</text><text xml:space="preserve" font-family="Menlo-Bold" font-weight="bold" font-size="42.0" fill="#FEFFFE" transform="matrix(1.00, 0.00, -0.00, -1.00, 622.6, 274.0)">C</text><text xml:space="preserve" font-family="Menlo-Bold" font-weight="bold" font-size="42.0" fill="#FEFFFE" transform="matrix(1.00, 0.00, -0.00, -1.00, 647.9, 274.0)">C</text><text xml:space="preserve" font-family="Menlo-Bold" font-weight="bold" font-size="42.0" fill="#FEFFFE" transform="matrix(1.00, 0.00, -0.00, -1.00, 673.2, 274.0)"> </text></g></g></g></g><image xlink:href="../../01886253-BD94-455A-9C97-BB7A4F0B0111/assets/EB1E938BD406D41A37BDB96FBB894BAC.png" width="103.00" height="39.00" transform="matrix(1.00, 0.00, -0.00, -1.00, 571.0, 255.0)"></image><g><clipPath id="clip-1044"><path d="M 115.8 742.2 L 1804.2 742.2 L 1804.2 169.1 L 115.8 169.1 Z M 115.8 742.2 "></path></clipPath><g clip-path="url(#clip-1044)"><g><clipPath id="clip-1045"><path d="M 454.6 169.6 L 790.2 169.6 L 790.2 359.2 L 454.6 359.2 Z M 454.6 169.6 "></path></clipPath><g clip-path="url(#clip-1045)"><text xml:space="preserve" font-family="Menlo-Bold" font-weight="bold" font-size="42.0" fill="#FEFFFE" transform="matrix(1.00, 0.00, -0.00, -1.00, 572.0, 225.0)">R</text><text xml:space="preserve" font-family="Menlo-Bold" font-weight="bold" font-size="42.0" fill="#FEFFFE" transform="matrix(1.00, 0.00, -0.00, -1.00, 597.3, 225.0)">E</text><text xml:space="preserve" font-family="Menlo-Bold" font-weight="bold" font-size="42.0" fill="#FEFFFE" transform="matrix(1.00, 0.00, -0.00, -1.00, 622.6, 225.0)">C</text><text xml:space="preserve" font-family="Menlo-Bold" font-weight="bold" font-size="42.0" fill="#FEFFFE" transform="matrix(1.00, 0.00, -0.00, -1.00, 647.9, 225.0)">C</text></g></g></g></g><image xlink:href="../../01886253-BD94-455A-9C97-BB7A4F0B0111/assets/27D1B8AE80907124415F8B6C8C412EB6.png" width="152.00" height="39.00" transform="matrix(1.00, 0.00, -0.00, -1.00, 884.0, 279.0)"></image><g><clipPath id="clip-1046"><path d="M 115.8 742.2 L 1804.2 742.2 L 1804.2 169.1 L 115.8 169.1 Z M 115.8 742.2 "></path></clipPath><g clip-path="url(#clip-1046)"><g><clipPath id="clip-1047"><path d="M 792.2 169.6 L 1127.8 169.6 L 1127.8 359.2 L 792.2 359.2 Z M 792.2 169.6 "></path></clipPath><g clip-path="url(#clip-1047)"><text xml:space="preserve" font-family="Menlo-Bold" font-weight="bold" font-size="42.0" fill="#FEFFFE" transform="matrix(1.00, 0.00, -0.00, -1.00, 884.0, 249.0)">u</text><text xml:space="preserve" font-family="Menlo-Bold" font-weight="bold" font-size="42.0" fill="#FEFFFE" transform="matrix(1.00, 0.00, -0.00, -1.00, 909.3, 249.0)">n</text><text xml:space="preserve" font-family="Menlo-Bold" font-weight="bold" font-size="42.0" fill="#FEFFFE" transform="matrix(1.00, 0.00, -0.00, -1.00, 934.6, 249.0)">u</text><text xml:space="preserve" font-family="Menlo-Bold" font-weight="bold" font-size="42.0" fill="#FEFFFE" transform="matrix(1.00, 0.00, -0.00, -1.00, 959.9, 249.0)">s</text><text xml:space="preserve" font-family="Menlo-Bold" font-weight="bold" font-size="42.0" fill="#FEFFFE" transform="matrix(1.00, 0.00, -0.00, -1.00, 985.2, 249.0)">e</text><text xml:space="preserve" font-family="Menlo-Bold" font-weight="bold" font-size="42.0" fill="#FEFFFE" transform="matrix(1.00, 0.00, -0.00, -1.00, 1010.5, 249.0)">d</text></g></g></g></g><image xlink:href="../../01886253-BD94-455A-9C97-BB7A4F0B0111/assets/5882517DF6A8BFB4924968B448FC32DE.png" width="76.00" height="39.00" transform="matrix(1.00, 0.00, -0.00, -1.00, 1260.0, 304.0)"></image><g><clipPath id="clip-1048"><path d="M 115.8 742.2 L 1804.2 742.2 L 1804.2 169.1 L 115.8 169.1 Z M 115.8 742.2 "></path></clipPath><g clip-path="url(#clip-1048)"><g><clipPath id="clip-1049"><path d="M 1129.8 169.6 L 1465.4 169.6 L 1465.4 359.2 L 1129.8 359.2 Z M 1129.8 169.6 "></path></clipPath><g clip-path="url(#clip-1049)"><text xml:space="preserve" font-family="Menlo-Bold" font-weight="bold" font-size="42.0" fill="#FEFFFE" transform="matrix(1.00, 0.00, -0.00, -1.00, 1260.0, 274.0)">F</text><text xml:space="preserve" font-family="Menlo-Bold" font-weight="bold" font-size="42.0" fill="#FEFFFE" transform="matrix(1.00, 0.00, -0.00, -1.00, 1285.3, 274.0)">V</text><text xml:space="preserve" font-family="Menlo-Bold" font-weight="bold" font-size="42.0" fill="#FEFFFE" transform="matrix(1.00, 0.00, -0.00, -1.00, 1310.6, 274.0)">C</text><text xml:space="preserve" font-family="Menlo-Bold" font-weight="bold" font-size="42.0" fill="#FEFFFE" transform="matrix(1.00, 0.00, -0.00, -1.00, 1335.9, 274.0)"> </text></g></g></g></g><image xlink:href="../../01886253-BD94-455A-9C97-BB7A4F0B0111/assets/705F9AE2FDCDBF06EAC3F6ACE37A85D3.png" width="77.00" height="39.00" transform="matrix(1.00, 0.00, -0.00, -1.00, 1259.0, 255.0)"></image><g><clipPath id="clip-1050"><path d="M 115.8 742.2 L 1804.2 742.2 L 1804.2 169.1 L 115.8 169.1 Z M 115.8 742.2 "></path></clipPath><g clip-path="url(#clip-1050)"><g><clipPath id="clip-1051"><path d="M 1129.8 169.6 L 1465.4 169.6 L 1465.4 359.2 L 1129.8 359.2 Z M 1129.8 169.6 "></path></clipPath><g clip-path="url(#clip-1051)"><text xml:space="preserve" font-family="Menlo-Bold" font-weight="bold" font-size="42.0" fill="#FEFFFE" transform="matrix(1.00, 0.00, -0.00, -1.00, 1260.0, 225.0)">R</text><text xml:space="preserve" font-family="Menlo-Bold" font-weight="bold" font-size="42.0" fill="#FEFFFE" transform="matrix(1.00, 0.00, -0.00, -1.00, 1285.3, 225.0)">V</text><text xml:space="preserve" font-family="Menlo-Bold" font-weight="bold" font-size="42.0" fill="#FEFFFE" transform="matrix(1.00, 0.00, -0.00, -1.00, 1310.6, 225.0)">C</text></g></g></g></g><image xlink:href="../../01886253-BD94-455A-9C97-BB7A4F0B0111/assets/5882517DF6A8BFB4924968B448FC32DE.png" width="76.00" height="39.00" transform="matrix(1.00, 0.00, -0.00, -1.00, 1598.0, 304.0)"></image><g><clipPath id="clip-1052"><path d="M 115.8 742.2 L 1804.2 742.2 L 1804.2 169.1 L 115.8 169.1 Z M 115.8 742.2 "></path></clipPath><g clip-path="url(#clip-1052)"><g><clipPath id="clip-1053"><path d="M 1467.4 169.6 L 1803.8 169.6 L 1803.8 359.2 L 1467.4 359.2 Z M 1467.4 169.6 "></path></clipPath><g clip-path="url(#clip-1053)"><text xml:space="preserve" font-family="Menlo-Bold" font-weight="bold" font-size="42.0" fill="#FEFFFE" transform="matrix(1.00, 0.00, -0.00, -1.00, 1598.0, 274.0)">F</text><text xml:space="preserve" font-family="Menlo-Bold" font-weight="bold" font-size="42.0" fill="#FEFFFE" transform="matrix(1.00, 0.00, -0.00, -1.00, 1623.3, 274.0)">V</text><text xml:space="preserve" font-family="Menlo-Bold" font-weight="bold" font-size="42.0" fill="#FEFFFE" transform="matrix(1.00, 0.00, -0.00, -1.00, 1648.6, 274.0)">C</text><text xml:space="preserve" font-family="Menlo-Bold" font-weight="bold" font-size="42.0" fill="#FEFFFE" transform="matrix(1.00, 0.00, -0.00, -1.00, 1673.9, 274.0)"> </text></g></g></g></g><image xlink:href="../../01886253-BD94-455A-9C97-BB7A4F0B0111/assets/705F9AE2FDCDBF06EAC3F6ACE37A85D3.png" width="77.00" height="39.00" transform="matrix(1.00, 0.00, -0.00, -1.00, 1597.0, 255.0)"></image><g><clipPath id="clip-1054"><path d="M 115.8 742.2 L 1804.2 742.2 L 1804.2 169.1 L 115.8 169.1 Z M 115.8 742.2 "></path></clipPath><g clip-path="url(#clip-1054)"><g><clipPath id="clip-1055"><path d="M 1467.4 169.6 L 1803.8 169.6 L 1803.8 359.2 L 1467.4 359.2 Z M 1467.4 169.6 "></path></clipPath><g clip-path="url(#clip-1055)"><text xml:space="preserve" font-family="Menlo-Bold" font-weight="bold" font-size="42.0" fill="#FEFFFE" transform="matrix(1.00, 0.00, -0.00, -1.00, 1598.0, 225.0)">R</text><text xml:space="preserve" font-family="Menlo-Bold" font-weight="bold" font-size="42.0" fill="#FEFFFE" transform="matrix(1.00, 0.00, -0.00, -1.00, 1623.3, 225.0)">V</text><text xml:space="preserve" font-family="Menlo-Bold" font-weight="bold" font-size="42.0" fill="#FEFFFE" transform="matrix(1.00, 0.00, -0.00, -1.00, 1648.6, 225.0)">C</text></g></g></g></g><g><clipPath id="clip-1056"><path d="M 115.8 742.2 L 1804.2 742.2 L 1804.2 169.1 L 115.8 169.1 Z M 115.8 742.2 "></path></clipPath><g clip-path="url(#clip-1056)"><path d="M 339.6 1.5 L 339.6 575.2 " fill="none" stroke="#000000" stroke-opacity="0.00" stroke-width="2.00" transform="matrix(1.00, 0.00, 0.00, -1.00, 114.0, 744.0)"></path><path d="M 677.2 1.5 L 677.2 575.2 " fill="none" stroke="#000000" stroke-opacity="0.00" stroke-width="2.00" transform="matrix(1.00, 0.00, 0.00, -1.00, 114.0, 744.0)"></path><path d="M 1014.8 1.5 L 1014.8 575.2 " fill="none" stroke="#000000" stroke-opacity="0.00" stroke-width="2.00" transform="matrix(1.00, 0.00, 0.00, -1.00, 114.0, 744.0)"></path><path d="M 1352.4 1.5 L 1352.4 575.2 " fill="none" stroke="#000000" stroke-opacity="0.00" stroke-width="2.00" transform="matrix(1.00, 0.00, 0.00, -1.00, 114.0, 744.0)"></path><path d="M 1.5 192.9 L 1690.5 192.9 " fill="none" stroke="#000000" stroke-opacity="0.00" stroke-width="2.00" transform="matrix(1.00, 0.00, 0.00, -1.00, 114.0, 744.0)"></path><path d="M 1.5 383.8 L 1690.5 383.8 " fill="none" stroke="#000000" stroke-opacity="0.00" stroke-width="2.00" transform="matrix(1.00, 0.00, 0.00, -1.00, 114.0, 744.0)"></path><path d="M 2.0 1.5 L 2.0 575.2 " fill="none" stroke="#FEFEFE" stroke-width="0.50" transform="matrix(1.00, 0.00, 0.00, -1.00, 114.0, 744.0)"></path><path d="M 1690.0 1.5 L 1690.0 575.2 " fill="none" stroke="#FEFEFE" stroke-width="0.50" transform="matrix(1.00, 0.00, 0.00, -1.00, 114.0, 744.0)"></path><path d="M 1.5 2.0 L 1690.5 2.0 " fill="none" stroke="#FEFEFE" stroke-width="0.50" transform="matrix(1.00, 0.00, 0.00, -1.00, 114.0, 744.0)"></path><path d="M 1.5 574.7 L 1690.5 574.7 " fill="none" stroke="#FEFEFE" stroke-width="0.50" transform="matrix(1.00, 0.00, 0.00, -1.00, 114.0, 744.0)"></path></g></g></g></svg>