<?xml version="1.0" encoding="UTF-8" standalone="no"?><svg xmlns="http://www.w3.org/2000/svg" xmlns:xlink="http://www.w3.org/1999/xlink" clip-rule="evenodd" stroke-miterlimit="4.00" viewBox="0 0 1920 1080"><desc>SVG generated by Keynote</desc><defs></defs><g transform="matrix(1.00, 0.00, -0.00, -1.00, 0.0, 1080.0)"><path d="M 0.0 1080.0 L 1920.0 1080.0 L 1920.0 0.0 L 0.0 0.0 Z M 0.0 1080.0 " fill="#000000"></path><image xlink:href="../../D3095388-3381-46A4-9297-FDEA88B38953/assets/25C40DCE4BD66AA0B12CE9524B56F8CF.png" width="882.00" height="102.00" transform="matrix(1.00, 0.00, -0.00, -1.00, 119.0, 1020.0)"></image><text xml:space="preserve" font-family="HelveticaNeue-Light" font-size="100.0" fill="#FEFFFE" transform="matrix(1.00, 0.00, -0.00, -1.00, 120.0, 946.0)">O</text><text xml:space="preserve" font-family="HelveticaNeue-Light" font-size="100.0" fill="#FEFFFE" transform="matrix(1.00, 0.00, -0.00, -1.00, 194.1, 946.0)">r</text><text xml:space="preserve" font-family="HelveticaNeue-Light" font-size="100.0" fill="#FEFFFE" transform="matrix(1.00, 0.00, -0.00, -1.00, 225.6, 946.0)">i</text><text xml:space="preserve" font-family="HelveticaNeue-Light" font-size="100.0" fill="#FEFFFE" transform="matrix(1.00, 0.00, -0.00, -1.00, 244.1, 946.0)">g</text><text xml:space="preserve" font-family="HelveticaNeue-Light" font-size="100.0" fill="#FEFFFE" transform="matrix(1.00, 0.00, -0.00, -1.00, 299.7, 946.0)">i</text><text xml:space="preserve" font-family="HelveticaNeue-Light" font-size="100.0" fill="#FEFFFE" transform="matrix(1.00, 0.00, -0.00, -1.00, 318.2, 946.0)">n</text><text xml:space="preserve" font-family="HelveticaNeue-Light" font-size="100.0" fill="#FEFFFE" transform="matrix(1.00, 0.00, -0.00, -1.00, 371.9, 946.0)">a</text><text xml:space="preserve" font-family="HelveticaNeue-Light" font-size="100.0" fill="#FEFFFE" transform="matrix(1.00, 0.00, -0.00, -1.00, 423.8, 946.0)">t</text><text xml:space="preserve" font-family="HelveticaNeue-Light" font-size="100.0" fill="#FEFFFE" transform="matrix(1.00, 0.00, -0.00, -1.00, 453.4, 946.0)">i</text><text xml:space="preserve" font-family="HelveticaNeue-Light" font-size="100.0" fill="#FEFFFE" transform="matrix(1.00, 0.00, -0.00, -1.00, 471.9, 946.0)">o</text><text xml:space="preserve" font-family="HelveticaNeue-Light" font-size="100.0" fill="#FEFFFE" transform="matrix(1.00, 0.00, -0.00, -1.00, 527.5, 946.0)">n</text><text xml:space="preserve" font-family="HelveticaNeue-Light" font-size="100.0" fill="#FEFFFE" transform="matrix(1.00, 0.00, -0.00, -1.00, 581.2, 946.0)"> </text><text xml:space="preserve" font-family="HelveticaNeue-Light" font-size="100.0" fill="#FEFFFE" transform="matrix(1.00, 0.00, -0.00, -1.00, 609.0, 946.0)">M</text><text xml:space="preserve" font-family="HelveticaNeue-Light" font-size="100.0" fill="#FEFFFE" transform="matrix(1.00, 0.00, -0.00, -1.00, 691.1, 946.0)">e</text><text xml:space="preserve" font-family="HelveticaNeue-Light" font-size="100.0" fill="#FEFFFE" transform="matrix(1.00, 0.00, -0.00, -1.00, 743.0, 946.0)">s</text><text xml:space="preserve" font-family="HelveticaNeue-Light" font-size="100.0" fill="#FEFFFE" transform="matrix(1.00, 0.00, -0.00, -1.00, 791.1, 946.0)">s</text><text xml:space="preserve" font-family="HelveticaNeue-Light" font-size="100.0" fill="#FEFFFE" transform="matrix(1.00, 0.00, -0.00, -1.00, 839.2, 946.0)">a</text><text xml:space="preserve" font-family="HelveticaNeue-Light" font-size="100.0" fill="#FEFFFE" transform="matrix(1.00, 0.00, -0.00, -1.00, 891.1, 946.0)">g</text><text xml:space="preserve" font-family="HelveticaNeue-Light" font-size="100.0" fill="#FEFFFE" transform="matrix(1.00, 0.00, -0.00, -1.00, 946.7, 946.0)">e</text><image xlink:href="../../22F9DC6D-8C88-4D90-BB3F-CCF3564B7DB0/assets/B0FE9E07D96AA05292C6C9A0EA103D47.png" width="1588.00" height="55.00" transform="matrix(1.00, 0.00, -0.00, -1.00, 119.0, 833.0)"></image><text xml:space="preserve" font-family="HelveticaNeue-Light" font-size="50.0" fill="#FEFFFE" transform="matrix(1.00, 0.00, -0.00, -1.00, 120.0, 796.0)">F</text><text xml:space="preserve" font-family="HelveticaNeue-Light" font-size="50.0" fill="#FEFFFE" transform="matrix(1.00, 0.00, -0.00, -1.00, 146.8, 796.0)">o</text><text xml:space="preserve" font-family="HelveticaNeue-Light" font-size="50.0" fill="#FEFFFE" transform="matrix(1.00, 0.00, -0.00, -1.00, 174.7, 796.0)">r</text><text xml:space="preserve" font-family="HelveticaNeue-Light" font-size="50.0" fill="#FEFFFE" transform="matrix(1.00, 0.00, -0.00, -1.00, 190.4, 796.0)"> </text><text xml:space="preserve" font-family="HelveticaNeue-Light" font-size="50.0" fill="#FEFFFE" transform="matrix(1.00, 0.00, -0.00, -1.00, 204.3, 796.0)">a</text><text xml:space="preserve" font-family="HelveticaNeue-Light" font-size="50.0" fill="#FEFFFE" transform="matrix(1.00, 0.00, -0.00, -1.00, 230.2, 796.0)">n</text><text xml:space="preserve" font-family="HelveticaNeue-Light" font-size="50.0" fill="#FEFFFE" transform="matrix(1.00, 0.00, -0.00, -1.00, 257.1, 796.0)"> </text><text xml:space="preserve" font-family="HelveticaNeue-Light" font-size="50.0" fill="#FEFFFE" transform="matrix(1.00, 0.00, -0.00, -1.00, 271.0, 796.0)">o</text><text xml:space="preserve" font-family="HelveticaNeue-Light" font-size="50.0" fill="#FEFFFE" transform="matrix(1.00, 0.00, -0.00, -1.00, 298.8, 796.0)">r</text><text xml:space="preserve" font-family="HelveticaNeue-Light" font-size="50.0" fill="#FEFFFE" transform="matrix(1.00, 0.00, -0.00, -1.00, 314.6, 796.0)">i</text><text xml:space="preserve" font-family="HelveticaNeue-Light" font-size="50.0" fill="#FEFFFE" transform="matrix(1.00, 0.00, -0.00, -1.00, 323.8, 796.0)">g</text><text xml:space="preserve" font-family="HelveticaNeue-Light" font-size="50.0" fill="#FEFFFE" transform="matrix(1.00, 0.00, -0.00, -1.00, 351.6, 796.0)">i</text><text xml:space="preserve" font-family="HelveticaNeue-Light" font-size="50.0" fill="#FEFFFE" transform="matrix(1.00, 0.00, -0.00, -1.00, 360.9, 796.0)">n</text><text xml:space="preserve" font-family="HelveticaNeue-Light" font-size="50.0" fill="#FEFFFE" transform="matrix(1.00, 0.00, -0.00, -1.00, 387.7, 796.0)">a</text><text xml:space="preserve" font-family="HelveticaNeue-Light" font-size="50.0" fill="#FEFFFE" transform="matrix(1.00, 0.00, -0.00, -1.00, 413.7, 796.0)">t</text><text xml:space="preserve" font-family="HelveticaNeue-Light" font-size="50.0" fill="#FEFFFE" transform="matrix(1.00, 0.00, -0.00, -1.00, 428.5, 796.0)">i</text><text xml:space="preserve" font-family="HelveticaNeue-Light" font-size="50.0" fill="#FEFFFE" transform="matrix(1.00, 0.00, -0.00, -1.00, 437.7, 796.0)">o</text><text xml:space="preserve" font-family="HelveticaNeue-Light" font-size="50.0" fill="#FEFFFE" transform="matrix(1.00, 0.00, -0.00, -1.00, 465.5, 796.0)">n</text><text xml:space="preserve" font-family="HelveticaNeue-Light" font-size="50.0" fill="#FEFFFE" transform="matrix(1.00, 0.00, -0.00, -1.00, 492.4, 796.0)">,</text><text xml:space="preserve" font-family="HelveticaNeue-Light" font-size="50.0" fill="#FEFFFE" transform="matrix(1.00, 0.00, -0.00, -1.00, 506.3, 796.0)"> </text><text xml:space="preserve" font-family="HelveticaNeue-Light" font-size="50.0" fill="#FEFFFE" transform="matrix(1.00, 0.00, -0.00, -1.00, 520.2, 796.0)">w</text><text xml:space="preserve" font-family="HelveticaNeue-Light" font-size="50.0" fill="#FEFFFE" transform="matrix(1.00, 0.00, -0.00, -1.00, 557.2, 796.0)">o</text><text xml:space="preserve" font-family="HelveticaNeue-Light" font-size="50.0" fill="#FEFFFE" transform="matrix(1.00, 0.00, -0.00, -1.00, 585.0, 796.0)">r</text><text xml:space="preserve" font-family="HelveticaNeue-Light" font-size="50.0" fill="#FEFFFE" transform="matrix(1.00, 0.00, -0.00, -1.00, 599.9, 796.0)">d</text><text xml:space="preserve" font-family="HelveticaNeue-Light" font-size="50.0" fill="#FEFFFE" transform="matrix(1.00, 0.00, -0.00, -1.00, 628.6, 796.0)">s</text><text xml:space="preserve" font-family="HelveticaNeue-Light" font-size="50.0" fill="#FEFFFE" transform="matrix(1.00, 0.00, -0.00, -1.00, 652.6, 796.0)"> </text><text xml:space="preserve" font-family="HelveticaNeue-Light" font-size="50.0" fill="#FEFFFE" transform="matrix(1.00, 0.00, -0.00, -1.00, 666.5, 796.0)">D</text><text xml:space="preserve" font-family="HelveticaNeue-Light" font-size="50.0" fill="#FEFFFE" transform="matrix(1.00, 0.00, -0.00, -1.00, 700.8, 796.0)"> </text><text xml:space="preserve" font-family="HelveticaNeue-Light" font-size="50.0" fill="#FEFFFE" transform="matrix(1.00, 0.00, -0.00, -1.00, 714.6, 796.0)">a</text><text xml:space="preserve" font-family="HelveticaNeue-Light" font-size="50.0" fill="#FEFFFE" transform="matrix(1.00, 0.00, -0.00, -1.00, 740.6, 796.0)">n</text><text xml:space="preserve" font-family="HelveticaNeue-Light" font-size="50.0" fill="#FEFFFE" transform="matrix(1.00, 0.00, -0.00, -1.00, 767.5, 796.0)">d</text><text xml:space="preserve" font-family="HelveticaNeue-Light" font-size="50.0" fill="#FEFFFE" transform="matrix(1.00, 0.00, -0.00, -1.00, 796.2, 796.0)"> </text><text xml:space="preserve" font-family="HelveticaNeue-Light" font-size="50.0" fill="#FEFFFE" transform="matrix(1.00, 0.00, -0.00, -1.00, 810.1, 796.0)">b</text><text xml:space="preserve" font-family="HelveticaNeue-Light" font-size="50.0" fill="#FEFFFE" transform="matrix(1.00, 0.00, -0.00, -1.00, 838.8, 796.0)">e</text><text xml:space="preserve" font-family="HelveticaNeue-Light" font-size="50.0" fill="#FEFFFE" transform="matrix(1.00, 0.00, -0.00, -1.00, 864.7, 796.0)">y</text><text xml:space="preserve" font-family="HelveticaNeue-Light" font-size="50.0" fill="#FEFFFE" transform="matrix(1.00, 0.00, -0.00, -1.00, 887.9, 796.0)">o</text><text xml:space="preserve" font-family="HelveticaNeue-Light" font-size="50.0" fill="#FEFFFE" transform="matrix(1.00, 0.00, -0.00, -1.00, 915.7, 796.0)">n</text><text xml:space="preserve" font-family="HelveticaNeue-Light" font-size="50.0" fill="#FEFFFE" transform="matrix(1.00, 0.00, -0.00, -1.00, 942.5, 796.0)">d</text><text xml:space="preserve" font-family="HelveticaNeue-Light" font-size="50.0" fill="#FEFFFE" transform="matrix(1.00, 0.00, -0.00, -1.00, 971.2, 796.0)"> </text><text xml:space="preserve" font-family="HelveticaNeue-Light" font-size="50.0" fill="#FEFFFE" transform="matrix(1.00, 0.00, -0.00, -1.00, 985.1, 796.0)">a</text><text xml:space="preserve" font-family="HelveticaNeue-Light" font-size="50.0" fill="#FEFFFE" transform="matrix(1.00, 0.00, -0.00, -1.00, 1011.1, 796.0)">r</text><text xml:space="preserve" font-family="HelveticaNeue-Light" font-size="50.0" fill="#FEFFFE" transform="matrix(1.00, 0.00, -0.00, -1.00, 1025.9, 796.0)">e</text><text xml:space="preserve" font-family="HelveticaNeue-Light" font-size="50.0" fill="#FEFFFE" transform="matrix(1.00, 0.00, -0.00, -1.00, 1051.9, 796.0)"> </text><text xml:space="preserve" font-family="HelveticaNeue-Light" font-size="50.0" fill="#FEFFFE" transform="matrix(1.00, 0.00, -0.00, -1.00, 1065.8, 796.0)">j</text><text xml:space="preserve" font-family="HelveticaNeue-Light" font-size="50.0" fill="#FEFFFE" transform="matrix(1.00, 0.00, -0.00, -1.00, 1075.0, 796.0)">u</text><text xml:space="preserve" font-family="HelveticaNeue-Light" font-size="50.0" fill="#FEFFFE" transform="matrix(1.00, 0.00, -0.00, -1.00, 1101.9, 796.0)">s</text><text xml:space="preserve" font-family="HelveticaNeue-Light" font-size="50.0" fill="#FEFFFE" transform="matrix(1.00, 0.00, -0.00, -1.00, 1125.9, 796.0)">t</text><text xml:space="preserve" font-family="HelveticaNeue-Light" font-size="50.0" fill="#FEFFFE" transform="matrix(1.00, 0.00, -0.00, -1.00, 1140.7, 796.0)"> </text><text xml:space="preserve" font-family="HelveticaNeue-Light" font-size="50.0" fill="#FEFFFE" transform="matrix(1.00, 0.00, -0.00, -1.00, 1154.6, 796.0)">t</text><text xml:space="preserve" font-family="HelveticaNeue-Light" font-size="50.0" fill="#FEFFFE" transform="matrix(1.00, 0.00, -0.00, -1.00, 1169.4, 796.0)">h</text><text xml:space="preserve" font-family="HelveticaNeue-Light" font-size="50.0" fill="#FEFFFE" transform="matrix(1.00, 0.00, -0.00, -1.00, 1196.2, 796.0)">e</text><text xml:space="preserve" font-family="HelveticaNeue-Light" font-size="50.0" fill="#FEFFFE" transform="matrix(1.00, 0.00, -0.00, -1.00, 1222.2, 796.0)"> </text><text xml:space="preserve" font-family="HelveticaNeue-Light" font-size="50.0" fill="#FEFFFE" transform="matrix(1.00, 0.00, -0.00, -1.00, 1236.1, 796.0)">d</text><text xml:space="preserve" font-family="HelveticaNeue-Light" font-size="50.0" fill="#FEFFFE" transform="matrix(1.00, 0.00, -0.00, -1.00, 1264.8, 796.0)">i</text><text xml:space="preserve" font-family="HelveticaNeue-Light" font-size="50.0" fill="#FEFFFE" transform="matrix(1.00, 0.00, -0.00, -1.00, 1274.1, 796.0)">a</text><text xml:space="preserve" font-family="HelveticaNeue-Light" font-size="50.0" fill="#FEFFFE" transform="matrix(1.00, 0.00, -0.00, -1.00, 1300.0, 796.0)">l</text><text xml:space="preserve" font-family="HelveticaNeue-Light" font-size="50.0" fill="#FEFFFE" transform="matrix(1.00, 0.00, -0.00, -1.00, 1309.3, 796.0)">e</text><text xml:space="preserve" font-family="HelveticaNeue-Light" font-size="50.0" fill="#FEFFFE" transform="matrix(1.00, 0.00, -0.00, -1.00, 1335.2, 796.0)">d</text><text xml:space="preserve" font-family="HelveticaNeue-Light" font-size="50.0" fill="#FEFFFE" transform="matrix(1.00, 0.00, -0.00, -1.00, 1363.9, 796.0)"> </text><text xml:space="preserve" font-family="HelveticaNeue-Light" font-size="50.0" fill="#FEFFFE" transform="matrix(1.00, 0.00, -0.00, -1.00, 1377.8, 796.0)">p</text><text xml:space="preserve" font-family="HelveticaNeue-Light" font-size="50.0" fill="#FEFFFE" transform="matrix(1.00, 0.00, -0.00, -1.00, 1406.5, 796.0)">h</text><text xml:space="preserve" font-family="HelveticaNeue-Light" font-size="50.0" fill="#FEFFFE" transform="matrix(1.00, 0.00, -0.00, -1.00, 1433.4, 796.0)">o</text><text xml:space="preserve" font-family="HelveticaNeue-Light" font-size="50.0" fill="#FEFFFE" transform="matrix(1.00, 0.00, -0.00, -1.00, 1461.2, 796.0)">n</text><text xml:space="preserve" font-family="HelveticaNeue-Light" font-size="50.0" fill="#FEFFFE" transform="matrix(1.00, 0.00, -0.00, -1.00, 1488.0, 796.0)">e</text><text xml:space="preserve" font-family="HelveticaNeue-Light" font-size="50.0" fill="#FEFFFE" transform="matrix(1.00, 0.00, -0.00, -1.00, 1514.0, 796.0)"> </text><text xml:space="preserve" font-family="HelveticaNeue-Light" font-size="50.0" fill="#FEFFFE" transform="matrix(1.00, 0.00, -0.00, -1.00, 1527.9, 796.0)">n</text><text xml:space="preserve" font-family="HelveticaNeue-Light" font-size="50.0" fill="#FEFFFE" transform="matrix(1.00, 0.00, -0.00, -1.00, 1554.7, 796.0)">u</text><text xml:space="preserve" font-family="HelveticaNeue-Light" font-size="50.0" fill="#FEFFFE" transform="matrix(1.00, 0.00, -0.00, -1.00, 1581.6, 796.0)">m</text><text xml:space="preserve" font-family="HelveticaNeue-Light" font-size="50.0" fill="#FEFFFE" transform="matrix(1.00, 0.00, -0.00, -1.00, 1623.2, 796.0)">b</text><text xml:space="preserve" font-family="HelveticaNeue-Light" font-size="50.0" fill="#FEFFFE" transform="matrix(1.00, 0.00, -0.00, -1.00, 1651.9, 796.0)">e</text><text xml:space="preserve" font-family="HelveticaNeue-Light" font-size="50.0" fill="#FEFFFE" transform="matrix(1.00, 0.00, -0.00, -1.00, 1677.9, 796.0)">r</text><text xml:space="preserve" font-family="HelveticaNeue-Light" font-size="50.0" fill="#FEFFFE" transform="matrix(1.00, 0.00, -0.00, -1.00, 1693.6, 796.0)">:</text><g><clipPath id="clip-828"><path d="M 47.0 715.0 L 1873.0 715.0 L 1873.0 477.0 L 47.0 477.0 Z M 47.4 714.6 "></path></clipPath><g clip-path="url(#clip-828)"><image xlink:href="../../22F9DC6D-8C88-4D90-BB3F-CCF3564B7DB0/assets/A228EF485C85F60D362D197B0066A0AB.png" width="961.00" height="116.00" transform="matrix(2.04, 0.00, -0.00, -2.05, -18.0, 715.0)"></image></g></g><g><clipPath id="clip-829"><path d="M 115.8 425.2 L 1804.2 425.2 L 1804.2 18.4 L 115.8 18.4 Z M 115.8 425.2 "></path></clipPath><g clip-path="url(#clip-829)"><path d="M 116.0 425.0 L 1804.0 425.0 L 1804.0 323.4 L 116.0 323.4 Z M 116.0 425.0 " fill="#000104" fill-opacity="0.36"></path><path d="M 116.0 323.4 L 1804.0 323.4 L 1804.0 221.8 L 116.0 221.8 Z M 116.0 323.4 " fill="#676163" fill-opacity="0.36"></path><path d="M 116.0 221.8 L 1804.0 221.8 L 1804.0 120.3 L 116.0 120.3 Z M 116.0 221.8 " fill="#000104" fill-opacity="0.36"></path><path d="M 116.0 120.3 L 1804.0 120.3 L 1804.0 18.7 L 116.0 18.7 Z M 116.0 120.3 " fill="#676163" fill-opacity="0.36"></path></g></g><image xlink:href="../../22F9DC6D-8C88-4D90-BB3F-CCF3564B7DB0/assets/B363FF2B778BA829DEA8C1B2F14DC123.png" width="555.00" height="44.00" transform="matrix(1.00, 0.00, -0.00, -1.00, 679.0, 390.0)"></image><g><clipPath id="clip-830"><path d="M 115.8 425.2 L 1804.2 425.2 L 1804.2 18.4 L 115.8 18.4 Z M 115.8 425.2 "></path></clipPath><g clip-path="url(#clip-830)"><g><clipPath id="clip-831"><path d="M 116.2 324.4 L 1803.8 324.4 L 1803.8 424.8 L 116.2 424.8 Z M 116.2 324.4 "></path></clipPath><g clip-path="url(#clip-831)"><text xml:space="preserve" font-family="Menlo-Bold" font-weight="bold" font-size="42.0" fill="#FEFFFE" transform="matrix(1.00, 0.00, -0.00, -1.00, 682.0, 360.0)">W</text><text xml:space="preserve" font-family="Menlo-Bold" font-weight="bold" font-size="42.0" fill="#FEFFFE" transform="matrix(1.00, 0.00, -0.00, -1.00, 707.3, 360.0)">o</text><text xml:space="preserve" font-family="Menlo-Bold" font-weight="bold" font-size="42.0" fill="#FEFFFE" transform="matrix(1.00, 0.00, -0.00, -1.00, 732.6, 360.0)">r</text><text xml:space="preserve" font-family="Menlo-Bold" font-weight="bold" font-size="42.0" fill="#FEFFFE" transform="matrix(1.00, 0.00, -0.00, -1.00, 757.9, 360.0)">d</text><text xml:space="preserve" font-family="Menlo-Bold" font-weight="bold" font-size="42.0" fill="#FEFFFE" transform="matrix(1.00, 0.00, -0.00, -1.00, 783.2, 360.0)"> </text><text xml:space="preserve" font-family="Menlo-Bold" font-weight="bold" font-size="42.0" fill="#FEFFFE" transform="matrix(1.00, 0.00, -0.00, -1.00, 808.5, 360.0)">A</text><text xml:space="preserve" font-family="Menlo-Bold" font-weight="bold" font-size="42.0" fill="#FEFFFE" transform="matrix(1.00, 0.00, -0.00, -1.00, 833.7, 360.0)"> </text><text xml:space="preserve" font-family="Menlo-Bold" font-weight="bold" font-size="42.0" fill="#FEFFFE" transform="matrix(1.00, 0.00, -0.00, -1.00, 859.0, 360.0)">(</text><text xml:space="preserve" font-family="Menlo-Bold" font-weight="bold" font-size="42.0" fill="#FEFFFE" transform="matrix(1.00, 0.00, -0.00, -1.00, 884.3, 360.0)">T</text><text xml:space="preserve" font-family="Menlo-Bold" font-weight="bold" font-size="42.0" fill="#FEFFFE" transform="matrix(1.00, 0.00, -0.00, -1.00, 909.6, 360.0)">=</text><text xml:space="preserve" font-family="Menlo-Bold" font-weight="bold" font-size="42.0" fill="#FEFFFE" transform="matrix(1.00, 0.00, -0.00, -1.00, 934.9, 360.0)">1</text><text xml:space="preserve" font-family="Menlo-Bold" font-weight="bold" font-size="42.0" fill="#FEFFFE" transform="matrix(1.00, 0.00, -0.00, -1.00, 960.2, 360.0)">,</text><text xml:space="preserve" font-family="Menlo-Bold" font-weight="bold" font-size="42.0" fill="#FEFFFE" transform="matrix(1.00, 0.00, -0.00, -1.00, 985.5, 360.0)"> </text><text xml:space="preserve" font-family="Menlo-Bold" font-weight="bold" font-size="42.0" fill="#FEFFFE" transform="matrix(1.00, 0.00, -0.00, -1.00, 1010.8, 360.0)">S</text><text xml:space="preserve" font-family="Menlo-Bold" font-weight="bold" font-size="42.0" fill="#FEFFFE" transform="matrix(1.00, 0.00, -0.00, -1.00, 1036.1, 360.0)">=</text><text xml:space="preserve" font-family="Menlo-Bold" font-weight="bold" font-size="42.0" fill="#FEFFFE" transform="matrix(1.00, 0.00, -0.00, -1.00, 1061.4, 360.0)">1</text><text xml:space="preserve" font-family="Menlo-Bold" font-weight="bold" font-size="42.0" fill="#FEFFFE" transform="matrix(1.00, 0.00, -0.00, -1.00, 1086.6, 360.0)">,</text><text xml:space="preserve" font-family="Menlo-Bold" font-weight="bold" font-size="42.0" fill="#FEFFFE" transform="matrix(1.00, 0.00, -0.00, -1.00, 1111.9, 360.0)"> </text><text xml:space="preserve" font-family="Menlo-Bold" font-weight="bold" font-size="42.0" fill="#FEFFFE" transform="matrix(1.00, 0.00, -0.00, -1.00, 1137.2, 360.0)">E</text><text xml:space="preserve" font-family="Menlo-Bold" font-weight="bold" font-size="42.0" fill="#FEFFFE" transform="matrix(1.00, 0.00, -0.00, -1.00, 1162.5, 360.0)">=</text><text xml:space="preserve" font-family="Menlo-Bold" font-weight="bold" font-size="42.0" fill="#FEFFFE" transform="matrix(1.00, 0.00, -0.00, -1.00, 1187.8, 360.0)">1</text><text xml:space="preserve" font-family="Menlo-Bold" font-weight="bold" font-size="42.0" fill="#FEFFFE" transform="matrix(1.00, 0.00, -0.00, -1.00, 1213.1, 360.0)">)</text></g></g></g></g><image xlink:href="../../22F9DC6D-8C88-4D90-BB3F-CCF3564B7DB0/assets/6A480BA189C33F95DEED4711007339DA.png" width="530.00" height="44.00" transform="matrix(1.00, 0.00, -0.00, -1.00, 704.0, 287.0)"></image><g><clipPath id="clip-832"><path d="M 115.8 425.2 L 1804.2 425.2 L 1804.2 18.4 L 115.8 18.4 Z M 115.8 425.2 "></path></clipPath><g clip-path="url(#clip-832)"><g><clipPath id="clip-833"><path d="M 116.2 222.8 L 1803.8 222.8 L 1803.8 322.4 L 116.2 322.4 Z M 116.2 222.8 "></path></clipPath><g clip-path="url(#clip-833)"><text xml:space="preserve" font-family="Menlo-Bold" font-weight="bold" font-size="42.0" fill="#FEFFFE" transform="matrix(1.00, 0.00, -0.00, -1.00, 682.0, 257.0)"> </text><text xml:space="preserve" font-family="Menlo-Bold" font-weight="bold" font-size="42.0" fill="#FEFFFE" transform="matrix(1.00, 0.00, -0.00, -1.00, 707.3, 257.0)">W</text><text xml:space="preserve" font-family="Menlo-Bold" font-weight="bold" font-size="42.0" fill="#FEFFFE" transform="matrix(1.00, 0.00, -0.00, -1.00, 732.6, 257.0)">o</text><text xml:space="preserve" font-family="Menlo-Bold" font-weight="bold" font-size="42.0" fill="#FEFFFE" transform="matrix(1.00, 0.00, -0.00, -1.00, 757.9, 257.0)">r</text><text xml:space="preserve" font-family="Menlo-Bold" font-weight="bold" font-size="42.0" fill="#FEFFFE" transform="matrix(1.00, 0.00, -0.00, -1.00, 783.2, 257.0)">d</text><text xml:space="preserve" font-family="Menlo-Bold" font-weight="bold" font-size="42.0" fill="#FEFFFE" transform="matrix(1.00, 0.00, -0.00, -1.00, 808.5, 257.0)"> </text><text xml:space="preserve" font-family="Menlo-Bold" font-weight="bold" font-size="42.0" fill="#FEFFFE" transform="matrix(1.00, 0.00, -0.00, -1.00, 833.7, 257.0)">B</text><text xml:space="preserve" font-family="Menlo-Bold" font-weight="bold" font-size="42.0" fill="#FEFFFE" transform="matrix(1.00, 0.00, -0.00, -1.00, 859.0, 257.0)"> </text><text xml:space="preserve" font-family="Menlo-Bold" font-weight="bold" font-size="42.0" fill="#FEFFFE" transform="matrix(1.00, 0.00, -0.00, -1.00, 884.3, 257.0)">(</text><text xml:space="preserve" font-family="Menlo-Bold" font-weight="bold" font-size="42.0" fill="#FEFFFE" transform="matrix(1.00, 0.00, -0.00, -1.00, 909.6, 257.0)">O</text><text xml:space="preserve" font-family="Menlo-Bold" font-weight="bold" font-size="42.0" fill="#FEFFFE" transform="matrix(1.00, 0.00, -0.00, -1.00, 934.9, 257.0)">R</text><text xml:space="preserve" font-family="Menlo-Bold" font-weight="bold" font-size="42.0" fill="#FEFFFE" transform="matrix(1.00, 0.00, -0.00, -1.00, 960.2, 257.0)">D</text><text xml:space="preserve" font-family="Menlo-Bold" font-weight="bold" font-size="42.0" fill="#FEFFFE" transform="matrix(1.00, 0.00, -0.00, -1.00, 985.5, 257.0)">E</text><text xml:space="preserve" font-family="Menlo-Bold" font-weight="bold" font-size="42.0" fill="#FEFFFE" transform="matrix(1.00, 0.00, -0.00, -1.00, 1010.8, 257.0)">R</text><text xml:space="preserve" font-family="Menlo-Bold" font-weight="bold" font-size="42.0" fill="#FEFFFE" transform="matrix(1.00, 0.00, -0.00, -1.00, 1036.1, 257.0)">=</text><text xml:space="preserve" font-family="Menlo-Bold" font-weight="bold" font-size="42.0" fill="#FEFFFE" transform="matrix(1.00, 0.00, -0.00, -1.00, 1061.4, 257.0)">O</text><text xml:space="preserve" font-family="Menlo-Bold" font-weight="bold" font-size="42.0" fill="#FEFFFE" transform="matrix(1.00, 0.00, -0.00, -1.00, 1086.6, 257.0)">R</text><text xml:space="preserve" font-family="Menlo-Bold" font-weight="bold" font-size="42.0" fill="#FEFFFE" transform="matrix(1.00, 0.00, -0.00, -1.00, 1111.9, 257.0)">D</text><text xml:space="preserve" font-family="Menlo-Bold" font-weight="bold" font-size="42.0" fill="#FEFFFE" transform="matrix(1.00, 0.00, -0.00, -1.00, 1137.2, 257.0)">Q</text><text xml:space="preserve" font-family="Menlo-Bold" font-weight="bold" font-size="42.0" fill="#FEFFFE" transform="matrix(1.00, 0.00, -0.00, -1.00, 1162.5, 257.0)">=</text><text xml:space="preserve" font-family="Menlo-Bold" font-weight="bold" font-size="42.0" fill="#FEFFFE" transform="matrix(1.00, 0.00, -0.00, -1.00, 1187.8, 257.0)">0</text><text xml:space="preserve" font-family="Menlo-Bold" font-weight="bold" font-size="42.0" fill="#FEFFFE" transform="matrix(1.00, 0.00, -0.00, -1.00, 1213.1, 257.0)">)</text></g></g></g></g><image xlink:href="../../22F9DC6D-8C88-4D90-BB3F-CCF3564B7DB0/assets/B5C1E5C90D19FACECE20E6AA0E803DE7.png" width="302.00" height="44.00" transform="matrix(1.00, 0.00, -0.00, -1.00, 805.0, 186.0)"></image><g><clipPath id="clip-834"><path d="M 115.8 425.2 L 1804.2 425.2 L 1804.2 18.4 L 115.8 18.4 Z M 115.8 425.2 "></path></clipPath><g clip-path="url(#clip-834)"><g><clipPath id="clip-835"><path d="M 116.2 121.3 L 1803.8 121.3 L 1803.8 220.8 L 116.2 220.8 Z M 116.2 121.3 "></path></clipPath><g clip-path="url(#clip-835)"><text xml:space="preserve" font-family="Menlo-Bold" font-weight="bold" font-size="42.0" fill="#FEFFFE" transform="matrix(1.00, 0.00, -0.00, -1.00, 808.0, 156.0)">W</text><text xml:space="preserve" font-family="Menlo-Bold" font-weight="bold" font-size="42.0" fill="#FEFFFE" transform="matrix(1.00, 0.00, -0.00, -1.00, 833.3, 156.0)">o</text><text xml:space="preserve" font-family="Menlo-Bold" font-weight="bold" font-size="42.0" fill="#FEFFFE" transform="matrix(1.00, 0.00, -0.00, -1.00, 858.6, 156.0)">r</text><text xml:space="preserve" font-family="Menlo-Bold" font-weight="bold" font-size="42.0" fill="#FEFFFE" transform="matrix(1.00, 0.00, -0.00, -1.00, 883.9, 156.0)">d</text><text xml:space="preserve" font-family="Menlo-Bold" font-weight="bold" font-size="42.0" fill="#FEFFFE" transform="matrix(1.00, 0.00, -0.00, -1.00, 909.2, 156.0)"> </text><text xml:space="preserve" font-family="Menlo-Bold" font-weight="bold" font-size="42.0" fill="#FEFFFE" transform="matrix(1.00, 0.00, -0.00, -1.00, 934.5, 156.0)">C</text><text xml:space="preserve" font-family="Menlo-Bold" font-weight="bold" font-size="42.0" fill="#FEFFFE" transform="matrix(1.00, 0.00, -0.00, -1.00, 959.7, 156.0)"> </text><text xml:space="preserve" font-family="Menlo-Bold" font-weight="bold" font-size="42.0" fill="#FEFFFE" transform="matrix(1.00, 0.00, -0.00, -1.00, 985.0, 156.0)">(</text><text xml:space="preserve" font-family="Menlo-Bold" font-weight="bold" font-size="42.0" fill="#FEFFFE" transform="matrix(1.00, 0.00, -0.00, -1.00, 1010.3, 156.0)">E</text><text xml:space="preserve" font-family="Menlo-Bold" font-weight="bold" font-size="42.0" fill="#FEFFFE" transform="matrix(1.00, 0.00, -0.00, -1.00, 1035.6, 156.0)">S</text><text xml:space="preserve" font-family="Menlo-Bold" font-weight="bold" font-size="42.0" fill="#FEFFFE" transform="matrix(1.00, 0.00, -0.00, -1.00, 1060.9, 156.0)">N</text><text xml:space="preserve" font-family="Menlo-Bold" font-weight="bold" font-size="42.0" fill="#FEFFFE" transform="matrix(1.00, 0.00, -0.00, -1.00, 1086.2, 156.0)">)</text></g></g></g></g><image xlink:href="../../22F9DC6D-8C88-4D90-BB3F-CCF3564B7DB0/assets/E9C6F4F49C9454242C6A4223168673CB.png" width="357.00" height="39.00" transform="matrix(1.00, 0.00, -0.00, -1.00, 780.0, 84.0)"></image><g><clipPath id="clip-836"><path d="M 115.8 425.2 L 1804.2 425.2 L 1804.2 18.4 L 115.8 18.4 Z M 115.8 425.2 "></path></clipPath><g clip-path="url(#clip-836)"><g><clipPath id="clip-837"><path d="M 116.2 18.9 L 1803.8 18.9 L 1803.8 119.3 L 116.2 119.3 Z M 116.2 18.9 "></path></clipPath><g clip-path="url(#clip-837)"><text xml:space="preserve" font-family="Menlo-Bold" font-weight="bold" font-size="42.0" fill="#FEFFFE" transform="matrix(1.00, 0.00, -0.00, -1.00, 783.0, 54.0)">W</text><text xml:space="preserve" font-family="Menlo-Bold" font-weight="bold" font-size="42.0" fill="#FEFFFE" transform="matrix(1.00, 0.00, -0.00, -1.00, 808.3, 54.0)">o</text><text xml:space="preserve" font-family="Menlo-Bold" font-weight="bold" font-size="42.0" fill="#FEFFFE" transform="matrix(1.00, 0.00, -0.00, -1.00, 833.6, 54.0)">r</text><text xml:space="preserve" font-family="Menlo-Bold" font-weight="bold" font-size="42.0" fill="#FEFFFE" transform="matrix(1.00, 0.00, -0.00, -1.00, 858.9, 54.0)">d</text><text xml:space="preserve" font-family="Menlo-Bold" font-weight="bold" font-size="42.0" fill="#FEFFFE" transform="matrix(1.00, 0.00, -0.00, -1.00, 884.2, 54.0)"> </text><text xml:space="preserve" font-family="Menlo-Bold" font-weight="bold" font-size="42.0" fill="#FEFFFE" transform="matrix(1.00, 0.00, -0.00, -1.00, 909.5, 54.0)">D</text><text xml:space="preserve" font-family="Menlo-Bold" font-weight="bold" font-size="42.0" fill="#FEFFFE" transform="matrix(1.00, 0.00, -0.00, -1.00, 934.7, 54.0)"> </text><text xml:space="preserve" font-family="Menlo-Bold" font-weight="bold" font-size="42.0" fill="#FEFFFE" transform="matrix(1.00, 0.00, -0.00, -1.00, 960.0, 54.0)">=</text><text xml:space="preserve" font-family="Menlo-Bold" font-weight="bold" font-size="42.0" fill="#FEFFFE" transform="matrix(1.00, 0.00, -0.00, -1.00, 985.3, 54.0)"> </text><text xml:space="preserve" font-family="Menlo-Bold" font-weight="bold" font-size="42.0" fill="#FEFFFE" transform="matrix(1.00, 0.00, -0.00, -1.00, 1010.6, 54.0)">3</text><text xml:space="preserve" font-family="Menlo-Bold" font-weight="bold" font-size="42.0" fill="#FEFFFE" transform="matrix(1.00, 0.00, -0.00, -1.00, 1035.9, 54.0)">1</text><text xml:space="preserve" font-family="Menlo-Bold" font-weight="bold" font-size="42.0" fill="#FEFFFE" transform="matrix(1.00, 0.00, -0.00, -1.00, 1061.2, 54.0)">3</text><text xml:space="preserve" font-family="Menlo-Bold" font-weight="bold" font-size="42.0" fill="#FEFFFE" transform="matrix(1.00, 0.00, -0.00, -1.00, 1086.5, 54.0)">3</text><text xml:space="preserve" font-family="Menlo-Bold" font-weight="bold" font-size="42.0" fill="#FEFFFE" transform="matrix(1.00, 0.00, -0.00, -1.00, 1111.8, 54.0)">7</text></g></g></g></g><g><clipPath id="clip-838"><path d="M 115.8 425.2 L 1804.2 425.2 L 1804.2 18.4 L 115.8 18.4 Z M 115.8 425.2 "></path></clipPath><g clip-path="url(#clip-838)"><path d="M 1.5 103.6 L 1690.5 103.6 " fill="none" stroke="#000000" stroke-opacity="0.00" stroke-width="2.00" transform="matrix(1.00, 0.00, 0.00, -1.00, 114.0, 427.0)"></path><path d="M 1.5 205.2 L 1690.5 205.2 " fill="none" stroke="#000000" stroke-opacity="0.00" stroke-width="2.00" transform="matrix(1.00, 0.00, 0.00, -1.00, 114.0, 427.0)"></path><path d="M 1.5 306.7 L 1690.5 306.7 " fill="none" stroke="#000000" stroke-opacity="0.00" stroke-width="2.00" transform="matrix(1.00, 0.00, 0.00, -1.00, 114.0, 427.0)"></path><path d="M 2.0 1.5 L 2.0 408.8 " fill="none" stroke="#FEFFFF" stroke-width="0.50" transform="matrix(1.00, 0.00, 0.00, -1.00, 114.0, 427.0)"></path><path d="M 1690.0 1.5 L 1690.0 408.8 " fill="none" stroke="#FEFFFF" stroke-width="0.50" transform="matrix(1.00, 0.00, 0.00, -1.00, 114.0, 427.0)"></path><path d="M 1.5 2.0 L 1690.5 2.0 " fill="none" stroke="#FEFFFF" stroke-width="0.50" transform="matrix(1.00, 0.00, 0.00, -1.00, 114.0, 427.0)"></path><path d="M 1.5 408.3 L 1690.5 408.3 " fill="none" stroke="#FEFFFF" stroke-width="0.50" transform="matrix(1.00, 0.00, 0.00, -1.00, 114.0, 427.0)"></path></g></g></g></svg>