<?xml version="1.0" encoding="UTF-8" standalone="no"?><svg xmlns="http://www.w3.org/2000/svg" xmlns:xlink="http://www.w3.org/1999/xlink" clip-rule="evenodd" stroke-miterlimit="4.00" viewBox="0 0 1920 1080"><desc>SVG generated by Keynote</desc><defs></defs><g transform="matrix(1.00, 0.00, -0.00, -1.00, 0.0, 1080.0)"><path d="M 0.0 1080.0 L 1920.0 1080.0 L 1920.0 0.0 L 0.0 0.0 Z M 0.0 1080.0 " fill="#000000"></path><image xlink:href="../../D1BD0E7E-55AA-4761-BE5C-6F1742CAB52A/assets/CC7A4D1007F46E525C4EEC1CB6E22A9F.png" width="1055.00" height="84.00" transform="matrix(1.00, 0.00, -0.00, -1.00, 433.0, 1031.0)"></image><text xml:space="preserve" font-family="HelveticaNeue-Light" font-size="82.0" fill="#FEFFFE" transform="matrix(1.00, 0.00, -0.00, -1.00, 432.0, 970.0)">F</text><text xml:space="preserve" font-family="HelveticaNeue-Light" font-size="82.0" fill="#FEFFFE" transform="matrix(1.00, 0.00, -0.00, -1.00, 476.0, 970.0)">O</text><text xml:space="preserve" font-family="HelveticaNeue-Light" font-size="82.0" fill="#FEFFFE" transform="matrix(1.00, 0.00, -0.00, -1.00, 536.8, 970.0)">C</text><text xml:space="preserve" font-family="HelveticaNeue-Light" font-size="82.0" fill="#FEFFFE" transform="matrix(1.00, 0.00, -0.00, -1.00, 594.5, 970.0)">C</text><text xml:space="preserve" font-family="HelveticaNeue-Light" font-size="82.0" fill="#FEFFFE" transform="matrix(1.00, 0.00, -0.00, -1.00, 652.3, 970.0)"> </text><text xml:space="preserve" font-family="HelveticaNeue-Light" font-size="82.0" fill="#FEFFFE" transform="matrix(1.00, 0.00, -0.00, -1.00, 675.0, 970.0)">S</text><text xml:space="preserve" font-family="HelveticaNeue-Light" font-size="82.0" fill="#FEFFFE" transform="matrix(1.00, 0.00, -0.00, -1.00, 726.7, 970.0)">t</text><text xml:space="preserve" font-family="HelveticaNeue-Light" font-size="82.0" fill="#FEFFFE" transform="matrix(1.00, 0.00, -0.00, -1.00, 751.0, 970.0)">r</text><text xml:space="preserve" font-family="HelveticaNeue-Light" font-size="82.0" fill="#FEFFFE" transform="matrix(1.00, 0.00, -0.00, -1.00, 775.3, 970.0)">e</text><text xml:space="preserve" font-family="HelveticaNeue-Light" font-size="82.0" fill="#FEFFFE" transform="matrix(1.00, 0.00, -0.00, -1.00, 817.9, 970.0)">a</text><text xml:space="preserve" font-family="HelveticaNeue-Light" font-size="82.0" fill="#FEFFFE" transform="matrix(1.00, 0.00, -0.00, -1.00, 860.5, 970.0)">m</text><text xml:space="preserve" font-family="HelveticaNeue-Light" font-size="82.0" fill="#FEFFFE" transform="matrix(1.00, 0.00, -0.00, -1.00, 928.8, 970.0)"> </text><text xml:space="preserve" font-family="HelveticaNeue-Light" font-size="82.0" fill="#FEFFFE" transform="matrix(1.00, 0.00, -0.00, -1.00, 951.6, 970.0)">F</text><text xml:space="preserve" font-family="HelveticaNeue-Light" font-size="82.0" fill="#FEFFFE" transform="matrix(1.00, 0.00, -0.00, -1.00, 995.6, 970.0)">o</text><text xml:space="preserve" font-family="HelveticaNeue-Light" font-size="82.0" fill="#FEFFFE" transform="matrix(1.00, 0.00, -0.00, -1.00, 1041.2, 970.0)">r</text><text xml:space="preserve" font-family="HelveticaNeue-Light" font-size="82.0" fill="#FEFFFE" transform="matrix(1.00, 0.00, -0.00, -1.00, 1067.0, 970.0)">m</text><text xml:space="preserve" font-family="HelveticaNeue-Light" font-size="82.0" fill="#FEFFFE" transform="matrix(1.00, 0.00, -0.00, -1.00, 1135.3, 970.0)">a</text><text xml:space="preserve" font-family="HelveticaNeue-Light" font-size="82.0" fill="#FEFFFE" transform="matrix(1.00, 0.00, -0.00, -1.00, 1177.9, 970.0)">t</text><text xml:space="preserve" font-family="HelveticaNeue-Light" font-size="82.0" fill="#FEFFFE" transform="matrix(1.00, 0.00, -0.00, -1.00, 1202.1, 970.0)"> </text><text xml:space="preserve" font-family="HelveticaNeue-Light" font-size="82.0" fill="#FEFFFE" transform="matrix(1.00, 0.00, -0.00, -1.00, 1224.9, 970.0)">(</text><text xml:space="preserve" font-family="HelveticaNeue-Light" font-size="82.0" fill="#FEFFFE" transform="matrix(1.00, 0.00, -0.00, -1.00, 1244.7, 970.0)">F</text><text xml:space="preserve" font-family="HelveticaNeue-Light" font-size="82.0" fill="#FEFFFE" transform="matrix(1.00, 0.00, -0.00, -1.00, 1288.7, 970.0)">r</text><text xml:space="preserve" font-family="HelveticaNeue-Light" font-size="82.0" fill="#FEFFFE" transform="matrix(1.00, 0.00, -0.00, -1.00, 1314.6, 970.0)">a</text><text xml:space="preserve" font-family="HelveticaNeue-Light" font-size="82.0" fill="#FEFFFE" transform="matrix(1.00, 0.00, -0.00, -1.00, 1357.1, 970.0)">m</text><text xml:space="preserve" font-family="HelveticaNeue-Light" font-size="82.0" fill="#FEFFFE" transform="matrix(1.00, 0.00, -0.00, -1.00, 1425.4, 970.0)">e</text><text xml:space="preserve" font-family="HelveticaNeue-Light" font-size="82.0" fill="#FEFFFE" transform="matrix(1.00, 0.00, -0.00, -1.00, 1468.0, 970.0)">)</text><g><clipPath id="clip-380"><path d="M 8.0 913.0 L 1912.0 913.0 L 1912.0 237.0 L 8.0 237.0 Z M 7.6 913.4 "></path></clipPath><g clip-path="url(#clip-380)"><image xlink:href="../../D1BD0E7E-55AA-4761-BE5C-6F1742CAB52A/assets/B3896719BEC3728BAE5C77AAE7CDAFCE.png" width="961.00" height="341.00" transform="matrix(1.98, 0.00, -0.00, -1.98, 8.0, 913.0)"></image></g></g><image xlink:href="../../D1BD0E7E-55AA-4761-BE5C-6F1742CAB52A/assets/D137A0C057E0E40207004BEE89688D44.png" width="1117.00" height="63.00" transform="matrix(1.00, 0.00, -0.00, -1.00, 21.0, 222.0)"></image><text xml:space="preserve" font-family="HelveticaNeue-Light" font-size="58.0" fill="#FEFFFE" transform="matrix(1.00, 0.00, -0.00, -1.00, 21.0, 178.0)">P</text><text xml:space="preserve" font-family="HelveticaNeue-Light" font-size="58.0" fill="#FEFFFE" transform="matrix(1.00, 0.00, -0.00, -1.00, 57.5, 178.0)">h</text><text xml:space="preserve" font-family="HelveticaNeue-Light" font-size="58.0" fill="#FEFFFE" transform="matrix(1.00, 0.00, -0.00, -1.00, 88.7, 178.0)">o</text><text xml:space="preserve" font-family="HelveticaNeue-Light" font-size="58.0" fill="#FEFFFE" transform="matrix(1.00, 0.00, -0.00, -1.00, 120.9, 178.0)">n</text><text xml:space="preserve" font-family="HelveticaNeue-Light" font-size="58.0" fill="#FEFFFE" transform="matrix(1.00, 0.00, -0.00, -1.00, 152.1, 178.0)">e</text><text xml:space="preserve" font-family="HelveticaNeue-Light" font-size="58.0" fill="#FEFFFE" transform="matrix(1.00, 0.00, -0.00, -1.00, 182.2, 178.0)">s</text><text xml:space="preserve" font-family="HelveticaNeue-Light" font-size="58.0" fill="#FEFFFE" transform="matrix(1.00, 0.00, -0.00, -1.00, 210.1, 178.0)"> </text><text xml:space="preserve" font-family="HelveticaNeue-Light" font-size="58.0" fill="#FEFFFE" transform="matrix(1.00, 0.00, -0.00, -1.00, 226.2, 178.0)">w</text><text xml:space="preserve" font-family="HelveticaNeue-Light" font-size="58.0" fill="#FEFFFE" transform="matrix(1.00, 0.00, -0.00, -1.00, 269.2, 178.0)">h</text><text xml:space="preserve" font-family="HelveticaNeue-Light" font-size="58.0" fill="#FEFFFE" transform="matrix(1.00, 0.00, -0.00, -1.00, 300.3, 178.0)">e</text><text xml:space="preserve" font-family="HelveticaNeue-Light" font-size="58.0" fill="#FEFFFE" transform="matrix(1.00, 0.00, -0.00, -1.00, 330.4, 178.0)">r</text><text xml:space="preserve" font-family="HelveticaNeue-Light" font-size="58.0" fill="#FEFFFE" transform="matrix(1.00, 0.00, -0.00, -1.00, 347.7, 178.0)">e</text><text xml:space="preserve" font-family="HelveticaNeue-Light" font-size="58.0" fill="#FEFFFE" transform="matrix(1.00, 0.00, -0.00, -1.00, 377.8, 178.0)"> </text><text xml:space="preserve" font-family="HelveticaNeue-Light" font-size="58.0" fill="#FEFFFE" transform="matrix(1.00, 0.00, -0.00, -1.00, 393.9, 178.0)">L</text><text xml:space="preserve" font-family="HelveticaNeue-Light" font-size="58.0" fill="#FEFFFE" transform="matrix(1.00, 0.00, -0.00, -1.00, 425.0, 178.0)">S</text><text xml:space="preserve" font-family="HelveticaNeue-Light" font-size="58.0" fill="#FEFFFE" transform="matrix(1.00, 0.00, -0.00, -1.00, 461.6, 178.0)">B</text><text xml:space="preserve" font-family="HelveticaNeue-Light" font-size="58.0" fill="#FEFFFE" transform="matrix(1.00, 0.00, -0.00, -1.00, 500.3, 178.0)">(</text><text xml:space="preserve" font-family="HelveticaNeue-Light" font-size="58.0" fill="#FEFFFE" transform="matrix(1.00, 0.00, -0.00, -1.00, 514.2, 178.0)">M</text><text xml:space="preserve" font-family="HelveticaNeue-Light" font-size="58.0" fill="#FEFFFE" transform="matrix(1.00, 0.00, -0.00, -1.00, 561.9, 178.0)">I</text><text xml:space="preserve" font-family="HelveticaNeue-Light" font-size="58.0" fill="#FEFFFE" transform="matrix(1.00, 0.00, -0.00, -1.00, 574.7, 178.0)">N</text><text xml:space="preserve" font-family="HelveticaNeue-Light" font-size="58.0" fill="#FEFFFE" transform="matrix(1.00, 0.00, -0.00, -1.00, 615.6, 178.0)">)</text><text xml:space="preserve" font-family="HelveticaNeue-Light" font-size="58.0" fill="#FEFFFE" transform="matrix(1.00, 0.00, -0.00, -1.00, 629.5, 178.0)"> </text><text xml:space="preserve" font-family="HelveticaNeue-Light" font-size="58.0" fill="#FEFFFE" transform="matrix(1.00, 0.00, -0.00, -1.00, 645.7, 178.0)">=</text><text xml:space="preserve" font-family="HelveticaNeue-Light" font-size="58.0" fill="#FEFFFE" transform="matrix(1.00, 0.00, -0.00, -1.00, 680.5, 178.0)"> </text><text xml:space="preserve" font-family="HelveticaNeue-Light" font-size="58.0" fill="#FEFFFE" transform="matrix(1.00, 0.00, -0.00, -1.00, 696.6, 178.0)">0</text><text xml:space="preserve" font-family="HelveticaNeue-Light" font-size="58.0" fill="#FEFFFE" transform="matrix(1.00, 0.00, -0.00, -1.00, 728.8, 178.0)"> </text><text xml:space="preserve" font-family="HelveticaNeue-Light" font-size="58.0" fill="#FEFFFE" transform="matrix(1.00, 0.00, -0.00, -1.00, 745.0, 178.0)">l</text><text xml:space="preserve" font-family="HelveticaNeue-Light" font-size="58.0" fill="#FEFFFE" transform="matrix(1.00, 0.00, -0.00, -1.00, 755.7, 178.0)">i</text><text xml:space="preserve" font-family="HelveticaNeue-Light" font-size="58.0" fill="#FEFFFE" transform="matrix(1.00, 0.00, -0.00, -1.00, 766.4, 178.0)">s</text><text xml:space="preserve" font-family="HelveticaNeue-Light" font-size="58.0" fill="#FEFFFE" transform="matrix(1.00, 0.00, -0.00, -1.00, 794.3, 178.0)">t</text><text xml:space="preserve" font-family="HelveticaNeue-Light" font-size="58.0" fill="#FEFFFE" transform="matrix(1.00, 0.00, -0.00, -1.00, 811.5, 178.0)">e</text><text xml:space="preserve" font-family="HelveticaNeue-Light" font-size="58.0" fill="#FEFFFE" transform="matrix(1.00, 0.00, -0.00, -1.00, 841.6, 178.0)">n</text><text xml:space="preserve" font-family="HelveticaNeue-Light" font-size="58.0" fill="#FEFFFE" transform="matrix(1.00, 0.00, -0.00, -1.00, 872.7, 178.0)"> </text><text xml:space="preserve" font-family="HelveticaNeue-Light" font-size="58.0" fill="#FEFFFE" transform="matrix(1.00, 0.00, -0.00, -1.00, 888.9, 178.0)">t</text><text xml:space="preserve" font-family="HelveticaNeue-Light" font-size="58.0" fill="#FEFFFE" transform="matrix(1.00, 0.00, -0.00, -1.00, 906.0, 178.0)">o</text><text xml:space="preserve" font-family="HelveticaNeue-Light" font-size="58.0" fill="#FEFFFE" transform="matrix(1.00, 0.00, -0.00, -1.00, 938.3, 178.0)"> </text><text xml:space="preserve" font-family="HelveticaNeue-Light" font-size="58.0" fill="#FEFFFE" transform="matrix(1.00, 0.00, -0.00, -1.00, 954.4, 178.0)">w</text><text xml:space="preserve" font-family="HelveticaNeue-Light" font-size="58.0" fill="#FEFFFE" transform="matrix(1.00, 0.00, -0.00, -1.00, 997.4, 178.0)">o</text><text xml:space="preserve" font-family="HelveticaNeue-Light" font-size="58.0" fill="#FEFFFE" transform="matrix(1.00, 0.00, -0.00, -1.00, 1029.6, 178.0)">r</text><text xml:space="preserve" font-family="HelveticaNeue-Light" font-size="58.0" fill="#FEFFFE" transform="matrix(1.00, 0.00, -0.00, -1.00, 1046.8, 178.0)">d</text><text xml:space="preserve" font-family="HelveticaNeue-Light" font-size="58.0" fill="#FEFFFE" transform="matrix(1.00, 0.00, -0.00, -1.00, 1080.1, 178.0)"> </text><text xml:space="preserve" font-family="HelveticaNeue-Light" font-size="58.0" fill="#FEFFFE" transform="matrix(1.00, 0.00, -0.00, -1.00, 1096.3, 178.0)">A</text><text xml:space="preserve" font-family="HelveticaNeue-Light" font-size="58.0" fill="#FEFFFE" transform="matrix(1.00, 0.00, -0.00, -1.00, 1132.8, 178.0)"> </text><image xlink:href="../../D1BD0E7E-55AA-4761-BE5C-6F1742CAB52A/assets/41E0401E640E1891F5967835CF945903.png" width="1797.00" height="63.00" transform="matrix(1.00, 0.00, -0.00, -1.00, 21.0, 152.0)"></image><text xml:space="preserve" font-family="HelveticaNeue-Light" font-size="58.0" fill="#FEFFFE" transform="matrix(1.00, 0.00, -0.00, -1.00, 21.0, 108.0)">B</text><text xml:space="preserve" font-family="HelveticaNeue-Light" font-size="58.0" fill="#FEFFFE" transform="matrix(1.00, 0.00, -0.00, -1.00, 59.7, 108.0)">u</text><text xml:space="preserve" font-family="HelveticaNeue-Light" font-size="58.0" fill="#FEFFFE" transform="matrix(1.00, 0.00, -0.00, -1.00, 90.8, 108.0)">s</text><text xml:space="preserve" font-family="HelveticaNeue-Light" font-size="58.0" fill="#FEFFFE" transform="matrix(1.00, 0.00, -0.00, -1.00, 118.7, 108.0)">y</text><text xml:space="preserve" font-family="HelveticaNeue-Light" font-size="58.0" fill="#FEFFFE" transform="matrix(1.00, 0.00, -0.00, -1.00, 145.6, 108.0)">/</text><text xml:space="preserve" font-family="HelveticaNeue-Light" font-size="58.0" fill="#FEFFFE" transform="matrix(1.00, 0.00, -0.00, -1.00, 164.9, 108.0)">I</text><text xml:space="preserve" font-family="HelveticaNeue-Light" font-size="58.0" fill="#FEFFFE" transform="matrix(1.00, 0.00, -0.00, -1.00, 177.8, 108.0)">d</text><text xml:space="preserve" font-family="HelveticaNeue-Light" font-size="58.0" fill="#FEFFFE" transform="matrix(1.00, 0.00, -0.00, -1.00, 211.1, 108.0)">l</text><text xml:space="preserve" font-family="HelveticaNeue-Light" font-size="58.0" fill="#FEFFFE" transform="matrix(1.00, 0.00, -0.00, -1.00, 221.8, 108.0)">e</text><text xml:space="preserve" font-family="HelveticaNeue-Light" font-size="58.0" fill="#FEFFFE" transform="matrix(1.00, 0.00, -0.00, -1.00, 251.9, 108.0)"> </text><text xml:space="preserve" font-family="HelveticaNeue-Light" font-size="58.0" fill="#FEFFFE" transform="matrix(1.00, 0.00, -0.00, -1.00, 268.0, 108.0)">b</text><text xml:space="preserve" font-family="HelveticaNeue-Light" font-size="58.0" fill="#FEFFFE" transform="matrix(1.00, 0.00, -0.00, -1.00, 301.3, 108.0)">i</text><text xml:space="preserve" font-family="HelveticaNeue-Light" font-size="58.0" fill="#FEFFFE" transform="matrix(1.00, 0.00, -0.00, -1.00, 312.0, 108.0)">t</text><text xml:space="preserve" font-family="HelveticaNeue-Light" font-size="58.0" fill="#FEFFFE" transform="matrix(1.00, 0.00, -0.00, -1.00, 329.2, 108.0)"> </text><text xml:space="preserve" font-family="HelveticaNeue-Light" font-size="58.0" fill="#FEFFFE" transform="matrix(1.00, 0.00, -0.00, -1.00, 345.3, 108.0)">s</text><text xml:space="preserve" font-family="HelveticaNeue-Light" font-size="58.0" fill="#FEFFFE" transform="matrix(1.00, 0.00, -0.00, -1.00, 373.2, 108.0)">e</text><text xml:space="preserve" font-family="HelveticaNeue-Light" font-size="58.0" fill="#FEFFFE" transform="matrix(1.00, 0.00, -0.00, -1.00, 403.3, 108.0)">n</text><text xml:space="preserve" font-family="HelveticaNeue-Light" font-size="58.0" fill="#FEFFFE" transform="matrix(1.00, 0.00, -0.00, -1.00, 434.5, 108.0)">t</text><text xml:space="preserve" font-family="HelveticaNeue-Light" font-size="58.0" fill="#FEFFFE" transform="matrix(1.00, 0.00, -0.00, -1.00, 451.7, 108.0)"> </text><text xml:space="preserve" font-family="HelveticaNeue-Light" font-size="58.0" fill="#FEFFFE" transform="matrix(1.00, 0.00, -0.00, -1.00, 467.8, 108.0)">b</text><text xml:space="preserve" font-family="HelveticaNeue-Light" font-size="58.0" fill="#FEFFFE" transform="matrix(1.00, 0.00, -0.00, -1.00, 501.1, 108.0)">e</text><text xml:space="preserve" font-family="HelveticaNeue-Light" font-size="58.0" fill="#FEFFFE" transform="matrix(1.00, 0.00, -0.00, -1.00, 531.2, 108.0)">f</text><text xml:space="preserve" font-family="HelveticaNeue-Light" font-size="58.0" fill="#FEFFFE" transform="matrix(1.00, 0.00, -0.00, -1.00, 546.2, 108.0)">o</text><text xml:space="preserve" font-family="HelveticaNeue-Light" font-size="58.0" fill="#FEFFFE" transform="matrix(1.00, 0.00, -0.00, -1.00, 578.4, 108.0)">r</text><text xml:space="preserve" font-family="HelveticaNeue-Light" font-size="58.0" fill="#FEFFFE" transform="matrix(1.00, 0.00, -0.00, -1.00, 595.7, 108.0)">e</text><text xml:space="preserve" font-family="HelveticaNeue-Light" font-size="58.0" fill="#FEFFFE" transform="matrix(1.00, 0.00, -0.00, -1.00, 625.8, 108.0)"> </text><text xml:space="preserve" font-family="HelveticaNeue-Light" font-size="58.0" fill="#FEFFFE" transform="matrix(1.00, 0.00, -0.00, -1.00, 641.9, 108.0)">d</text><text xml:space="preserve" font-family="HelveticaNeue-Light" font-size="58.0" fill="#FEFFFE" transform="matrix(1.00, 0.00, -0.00, -1.00, 675.2, 108.0)">o</text><text xml:space="preserve" font-family="HelveticaNeue-Light" font-size="58.0" fill="#FEFFFE" transform="matrix(1.00, 0.00, -0.00, -1.00, 707.4, 108.0)">t</text><text xml:space="preserve" font-family="HelveticaNeue-Light" font-size="58.0" fill="#FEFFFE" transform="matrix(1.00, 0.00, -0.00, -1.00, 724.6, 108.0)">t</text><text xml:space="preserve" font-family="HelveticaNeue-Light" font-size="58.0" fill="#FEFFFE" transform="matrix(1.00, 0.00, -0.00, -1.00, 741.8, 108.0)">i</text><text xml:space="preserve" font-family="HelveticaNeue-Light" font-size="58.0" fill="#FEFFFE" transform="matrix(1.00, 0.00, -0.00, -1.00, 752.5, 108.0)">n</text><text xml:space="preserve" font-family="HelveticaNeue-Light" font-size="58.0" fill="#FEFFFE" transform="matrix(1.00, 0.00, -0.00, -1.00, 783.6, 108.0)">g</text><text xml:space="preserve" font-family="HelveticaNeue-Light" font-size="58.0" fill="#FEFFFE" transform="matrix(1.00, 0.00, -0.00, -1.00, 815.9, 108.0)">/</text><text xml:space="preserve" font-family="HelveticaNeue-Light" font-size="58.0" fill="#FEFFFE" transform="matrix(1.00, 0.00, -0.00, -1.00, 835.2, 108.0)">s</text><text xml:space="preserve" font-family="HelveticaNeue-Light" font-size="58.0" fill="#FEFFFE" transform="matrix(1.00, 0.00, -0.00, -1.00, 863.1, 108.0)">y</text><text xml:space="preserve" font-family="HelveticaNeue-Light" font-size="58.0" fill="#FEFFFE" transform="matrix(1.00, 0.00, -0.00, -1.00, 890.0, 108.0)">n</text><text xml:space="preserve" font-family="HelveticaNeue-Light" font-size="58.0" fill="#FEFFFE" transform="matrix(1.00, 0.00, -0.00, -1.00, 921.1, 108.0)">c</text><text xml:space="preserve" font-family="HelveticaNeue-Light" font-size="58.0" fill="#FEFFFE" transform="matrix(1.00, 0.00, -0.00, -1.00, 951.2, 108.0)">,</text><text xml:space="preserve" font-family="HelveticaNeue-Light" font-size="58.0" fill="#FEFFFE" transform="matrix(1.00, 0.00, -0.00, -1.00, 967.3, 108.0)"> </text><text xml:space="preserve" font-family="HelveticaNeue-Light" font-size="58.0" fill="#FEFFFE" transform="matrix(1.00, 0.00, -0.00, -1.00, 983.5, 108.0)">a</text><text xml:space="preserve" font-family="HelveticaNeue-Light" font-size="58.0" fill="#FEFFFE" transform="matrix(1.00, 0.00, -0.00, -1.00, 1013.6, 108.0)">f</text><text xml:space="preserve" font-family="HelveticaNeue-Light" font-size="58.0" fill="#FEFFFE" transform="matrix(1.00, 0.00, -0.00, -1.00, 1028.6, 108.0)">t</text><text xml:space="preserve" font-family="HelveticaNeue-Light" font-size="58.0" fill="#FEFFFE" transform="matrix(1.00, 0.00, -0.00, -1.00, 1045.7, 108.0)">e</text><text xml:space="preserve" font-family="HelveticaNeue-Light" font-size="58.0" fill="#FEFFFE" transform="matrix(1.00, 0.00, -0.00, -1.00, 1075.8, 108.0)">r</text><text xml:space="preserve" font-family="HelveticaNeue-Light" font-size="58.0" fill="#FEFFFE" transform="matrix(1.00, 0.00, -0.00, -1.00, 1094.1, 108.0)"> </text><text xml:space="preserve" font-family="HelveticaNeue-Light" font-size="58.0" fill="#FEFFFE" transform="matrix(1.00, 0.00, -0.00, -1.00, 1110.2, 108.0)">s</text><text xml:space="preserve" font-family="HelveticaNeue-Light" font-size="58.0" fill="#FEFFFE" transform="matrix(1.00, 0.00, -0.00, -1.00, 1138.1, 108.0)">y</text><text xml:space="preserve" font-family="HelveticaNeue-Light" font-size="58.0" fill="#FEFFFE" transform="matrix(1.00, 0.00, -0.00, -1.00, 1165.0, 108.0)">n</text><text xml:space="preserve" font-family="HelveticaNeue-Light" font-size="58.0" fill="#FEFFFE" transform="matrix(1.00, 0.00, -0.00, -1.00, 1196.1, 108.0)">c</text><text xml:space="preserve" font-family="HelveticaNeue-Light" font-size="58.0" fill="#FEFFFE" transform="matrix(1.00, 0.00, -0.00, -1.00, 1226.2, 108.0)">,</text><text xml:space="preserve" font-family="HelveticaNeue-Light" font-size="58.0" fill="#FEFFFE" transform="matrix(1.00, 0.00, -0.00, -1.00, 1242.4, 108.0)"> </text><text xml:space="preserve" font-family="HelveticaNeue-Light" font-size="58.0" fill="#FEFFFE" transform="matrix(1.00, 0.00, -0.00, -1.00, 1258.5, 108.0)">a</text><text xml:space="preserve" font-family="HelveticaNeue-Light" font-size="58.0" fill="#FEFFFE" transform="matrix(1.00, 0.00, -0.00, -1.00, 1288.6, 108.0)">n</text><text xml:space="preserve" font-family="HelveticaNeue-Light" font-size="58.0" fill="#FEFFFE" transform="matrix(1.00, 0.00, -0.00, -1.00, 1319.7, 108.0)">d</text><text xml:space="preserve" font-family="HelveticaNeue-Light" font-size="58.0" fill="#FEFFFE" transform="matrix(1.00, 0.00, -0.00, -1.00, 1353.0, 108.0)"> </text><text xml:space="preserve" font-family="HelveticaNeue-Light" font-size="58.0" fill="#FEFFFE" transform="matrix(1.00, 0.00, -0.00, -1.00, 1369.2, 108.0)">e</text><text xml:space="preserve" font-family="HelveticaNeue-Light" font-size="58.0" fill="#FEFFFE" transform="matrix(1.00, 0.00, -0.00, -1.00, 1399.3, 108.0)">v</text><text xml:space="preserve" font-family="HelveticaNeue-Light" font-size="58.0" fill="#FEFFFE" transform="matrix(1.00, 0.00, -0.00, -1.00, 1426.1, 108.0)">e</text><text xml:space="preserve" font-family="HelveticaNeue-Light" font-size="58.0" fill="#FEFFFE" transform="matrix(1.00, 0.00, -0.00, -1.00, 1456.2, 108.0)">r</text><text xml:space="preserve" font-family="HelveticaNeue-Light" font-size="58.0" fill="#FEFFFE" transform="matrix(1.00, 0.00, -0.00, -1.00, 1474.5, 108.0)">y</text><text xml:space="preserve" font-family="HelveticaNeue-Light" font-size="58.0" fill="#FEFFFE" transform="matrix(1.00, 0.00, -0.00, -1.00, 1501.3, 108.0)"> </text><text xml:space="preserve" font-family="HelveticaNeue-Light" font-size="58.0" fill="#FEFFFE" transform="matrix(1.00, 0.00, -0.00, -1.00, 1517.5, 108.0)">1</text><text xml:space="preserve" font-family="HelveticaNeue-Light" font-size="58.0" fill="#FEFFFE" transform="matrix(1.00, 0.00, -0.00, -1.00, 1549.7, 108.0)">0</text><text xml:space="preserve" font-family="HelveticaNeue-Light" font-size="58.0" fill="#FEFFFE" transform="matrix(1.00, 0.00, -0.00, -1.00, 1582.0, 108.0)"> </text><text xml:space="preserve" font-family="HelveticaNeue-Light" font-size="58.0" fill="#FEFFFE" transform="matrix(1.00, 0.00, -0.00, -1.00, 1598.1, 108.0)">b</text><text xml:space="preserve" font-family="HelveticaNeue-Light" font-size="58.0" fill="#FEFFFE" transform="matrix(1.00, 0.00, -0.00, -1.00, 1631.4, 108.0)">i</text><text xml:space="preserve" font-family="HelveticaNeue-Light" font-size="58.0" fill="#FEFFFE" transform="matrix(1.00, 0.00, -0.00, -1.00, 1642.1, 108.0)">t</text><text xml:space="preserve" font-family="HelveticaNeue-Light" font-size="58.0" fill="#FEFFFE" transform="matrix(1.00, 0.00, -0.00, -1.00, 1659.3, 108.0)">s</text><text xml:space="preserve" font-family="HelveticaNeue-Light" font-size="58.0" fill="#FEFFFE" transform="matrix(1.00, 0.00, -0.00, -1.00, 1687.2, 108.0)"> </text><text xml:space="preserve" font-family="HelveticaNeue-Light" font-size="58.0" fill="#FEFFFE" transform="matrix(1.00, 0.00, -0.00, -1.00, 1703.3, 108.0)">a</text><text xml:space="preserve" font-family="HelveticaNeue-Light" font-size="58.0" fill="#FEFFFE" transform="matrix(1.00, 0.00, -0.00, -1.00, 1733.4, 108.0)">f</text><text xml:space="preserve" font-family="HelveticaNeue-Light" font-size="58.0" fill="#FEFFFE" transform="matrix(1.00, 0.00, -0.00, -1.00, 1748.4, 108.0)">t</text><text xml:space="preserve" font-family="HelveticaNeue-Light" font-size="58.0" fill="#FEFFFE" transform="matrix(1.00, 0.00, -0.00, -1.00, 1765.6, 108.0)">e</text><text xml:space="preserve" font-family="HelveticaNeue-Light" font-size="58.0" fill="#FEFFFE" transform="matrix(1.00, 0.00, -0.00, -1.00, 1795.7, 108.0)">r</text></g></svg>